<?xml version="1.0" encoding="utf-8"?>
<!-- Generator: Adobe Illustrator 16.0.3, SVG Export Plug-In . SVG Version: 6.00 Build 0)  -->
<!DOCTYPE svg PUBLIC "-//W3C//DTD SVG 1.1//EN" "http://www.w3.org/Graphics/SVG/1.1/DTD/svg11.dtd">
<svg version="1.1" xmlns="http://www.w3.org/2000/svg" xmlns:xlink="http://www.w3.org/1999/xlink" x="0px" y="0px"
	 width="109.494px" height="109.494px" viewBox="0 0 109.494 109.494" enable-background="new 0 0 109.494 109.494"
	 xml:space="preserve">
<g id="Background">
</g>
<g id="Design">
	<g>
		<circle fill="#3C5A99" cx="54.495" cy="55.088" r="40.107"/>
		<path fill="#A2B1CE" d="M53.677,57.363c-0.026-0.192-0.053-0.385-0.08-0.576c0.077-1.173-0.094-2.381,0.507-3.478
			c0.189,0.163,0.379,0.327,0.568,0.489c1.255,1.038,0.202,2.39,0.484,3.56c-0.161,0.009-0.322,0.015-0.484,0.017
			C54.341,57.371,54.009,57.367,53.677,57.363z"/>
		<path fill="#E8ECF3" d="M55.389,54.415c-0.263,0.654-0.526,1.309-0.789,1.964c-0.353-0.691-2.26-1.379-0.003-2.073
			C54.861,54.342,55.125,54.379,55.389,54.415z"/>
		<path fill="#A7B5D1" d="M53.729,53.299c0.332,0.003,0.663,0.007,0.995,0.011c0.162,0.51,0.325,1.019,0.487,1.528
			c-0.542,0.358-0.023,0.68,0.036,1.016c-0.176,0.177-0.352,0.354-0.527,0.529c-0.421,0.207-0.503,0.586-0.509,1.003
			C53.199,56.124,53.907,54.658,53.729,53.299z"/>
		<path fill-rule="evenodd" clip-rule="evenodd" fill="#FFFFFF" d="M47.849,55.542v24.565c0,0.354,0.286,0.64,0.64,0.64h9.123
			c0.354,0,0.64-0.286,0.64-0.64V55.143h6.613c0.332,0,0.609-0.256,0.638-0.586l0.636-7.522c0.031-0.374-0.263-0.694-0.638-0.694
			h-7.249v-5.336c0-1.251,1.014-2.266,2.265-2.266h5.097c0.354,0,0.64-0.286,0.64-0.639v-7.522c0-0.354-0.286-0.64-0.64-0.64H57
			c-5.054,0-9.151,4.097-9.151,9.15v7.252h-4.561c-0.354,0-0.641,0.287-0.641,0.641v7.521c0,0.354,0.287,0.641,0.641,0.641h4.561
			V55.542z"/>
	</g>
</g>
</svg>
