<?xml version="1.0" encoding="utf-8"?>
<!-- Generator: Adobe Illustrator 16.0.3, SVG Export Plug-In . SVG Version: 6.00 Build 0)  -->
<!DOCTYPE svg PUBLIC "-//W3C//DTD SVG 1.1//EN" "http://www.w3.org/Graphics/SVG/1.1/DTD/svg11.dtd">
<svg version="1.1" xmlns="http://www.w3.org/2000/svg" xmlns:xlink="http://www.w3.org/1999/xlink" x="0px" y="0px"
	 width="106.494px" height="106.494px" viewBox="0 0 106.494 106.494" enable-background="new 0 0 106.494 106.494"
	 xml:space="preserve">
<g id="Background">
</g>
<g id="Design">
	<g>
		<g>
			<circle fill="#FC4D3F" cx="53.057" cy="53.247" r="39.823"/>
		</g>
		<g>
			<path fill="#FFFFFF" d="M43.722,49.613c-0.01,0.108-0.018,0.2-0.018,0.287c0,2.21,0.006,6.991,0.006,6.991s9.2,0,9.7,0
				c0,0.721-0.853,3.613-3.562,5.452c-1.591,1.073-3.375,1.57-5.267,1.691c-1.333,0.085-2.65-0.048-3.93-0.455
				c-4.045-1.3-7.057-4.959-7.468-9.419c-0.103-1.101-0.031-2.201,0.217-3.285c1.206-5.273,6.196-9.181,11.918-8.338
				c2.535,0.375,3.993,1.431,5.323,2.566c1.752-1.755,3.485-3.487,5.27-5.276c-0.433-0.311-1.434-1.326-3.21-2.354
				c-2.661-1.538-5.526-2.307-8.596-2.337c-0.578-0.009-1.155,0.026-1.731,0.051c-1.013,0.04-2.006,0.213-2.985,0.464
				c-3.918,0.997-7.172,3.055-9.719,6.199c-2.451,3.017-3.768,6.483-4.009,10.351c-0.107,1.639,0.021,3.271,0.384,4.879
				c1.021,4.487,3.373,8.107,7.086,10.827c2.876,2.104,6.117,3.23,9.672,3.425c2.002,0.109,3.99-0.076,5.938-0.585
				c3.632-0.949,6.647-2.842,8.914-5.86c3.278-4.366,4.074-9.96,3.104-15.272C55.063,49.613,49.403,49.613,43.722,49.613z"/>
			<polygon fill="#FFFFFF" points="82.671,49.849 76.531,49.849 76.531,43.709 76.531,43.529 76.353,43.529 71.766,43.529 
				71.586,43.529 71.586,43.709 71.586,49.849 65.447,49.849 65.268,49.849 65.268,50.026 65.268,54.612 65.268,54.794 
				65.447,54.794 71.586,54.794 71.586,60.934 71.586,61.112 71.766,61.112 76.353,61.112 76.531,61.112 76.531,60.934 
				76.531,54.794 82.671,54.794 82.853,54.794 82.853,54.612 82.853,50.026 82.853,49.849 			"/>
		</g>
	</g>
</g>
</svg>
