<?xml version="1.0" encoding="utf-8"?>
<!-- Generator: Adobe Illustrator 16.0.3, SVG Export Plug-In . SVG Version: 6.00 Build 0)  -->
<!DOCTYPE svg PUBLIC "-//W3C//DTD SVG 1.1//EN" "http://www.w3.org/Graphics/SVG/1.1/DTD/svg11.dtd">
<svg version="1.1" xmlns="http://www.w3.org/2000/svg" xmlns:xlink="http://www.w3.org/1999/xlink" x="0px" y="0px"
	 width="107.994px" height="107.994px" viewBox="0 0 107.994 107.994" enable-background="new 0 0 107.994 107.994"
	 xml:space="preserve">
<g id="Background">
</g>
<g id="Design">
	<g>
		<linearGradient id="SVGID_1_" gradientUnits="userSpaceOnUse" x1="19.6006" y1="88.4536" x2="106.2764" y2="1.7778">
			<stop  offset="0.0011" style="stop-color:#FBE18A"/>
			<stop  offset="0.2094" style="stop-color:#FCBB45"/>
			<stop  offset="0.3765" style="stop-color:#F75274"/>
			<stop  offset="0.5238" style="stop-color:#D53692"/>
			<stop  offset="0.7394" style="stop-color:#8F39CE"/>
			<stop  offset="1" style="stop-color:#5B4FE9"/>
		</linearGradient>
		<circle fill="url(#SVGID_1_)" cx="53.801" cy="54.252" r="40.107"/>
		<g>
			<circle fill="#FFFFFF" cx="67.999" cy="40.284" r="3.116"/>
			<path fill="#FFFFFF" d="M54.146,41.164c-7.217,0-13.089,5.872-13.089,13.088c0,7.217,5.872,13.089,13.089,13.089
				s13.089-5.872,13.089-13.089C67.235,47.036,61.363,41.164,54.146,41.164z M54.146,62.637c-4.623,0-8.384-3.761-8.384-8.384
				c0-4.623,3.761-8.384,8.384-8.384s8.384,3.761,8.384,8.384C62.53,58.876,58.77,62.637,54.146,62.637z"/>
			<g>
				<path fill="#FFFFFF" d="M64.537,80.827H43.318c-8.803,0-15.964-7.162-15.964-15.964v-21.22c0-8.803,7.161-15.964,15.964-15.964
					h21.219c8.803,0,15.965,7.161,15.965,15.964v21.22C80.502,73.665,73.34,80.827,64.537,80.827z M43.318,32.679
					c-6.046,0-10.964,4.918-10.964,10.964v21.22c0,6.046,4.918,10.964,10.964,10.964h21.219c6.046,0,10.965-4.918,10.965-10.964
					v-21.22c0-6.046-4.919-10.964-10.965-10.964H43.318z"/>
			</g>
		</g>
	</g>
</g>
</svg>
