<?xml version="1.0" encoding="utf-8"?>
<!-- Generator: Adobe Illustrator 16.0.3, SVG Export Plug-In . SVG Version: 6.00 Build 0)  -->
<!DOCTYPE svg PUBLIC "-//W3C//DTD SVG 1.1//EN" "http://www.w3.org/Graphics/SVG/1.1/DTD/svg11.dtd">
<svg version="1.1" id="Layer_1" xmlns="http://www.w3.org/2000/svg" xmlns:xlink="http://www.w3.org/1999/xlink" x="0px" y="0px"
	 width="595.279px" height="366px" viewBox="0 0 595.279 366" enable-background="new 0 0 595.279 366" xml:space="preserve">
<g>
	<path fill="#284272" d="M47.764,513.174c0-6.994-0.058-13.986,0-20.98c0.057-5.118,1.137-6.71,5.97-8.416
		c10.52-3.64,21.267-5.003,32.298-3.64c2.786,0.342,5.401,1.364,7.335,3.582c0.625,0.684,1.023,0.739,1.876,0.284
		c9.212-5.004,19.105-5.061,29.057-3.639c5.629,0.796,8.643,4.549,9.04,10.233c0.91,15.013,0.228,30.023,0.398,44.979
		c0.057,2.389-1.137,3.582-3.582,3.582c-2.616,0-5.231,0.058-7.847,0c-3.412-0.058-4.095-0.854-4.095-4.266
		c0-10.859,0-21.776,0-32.638c0-1.365,0-2.729-0.113-4.037c-0.284-3.298-1.763-4.891-5.004-5.288
		c-3.98-0.512-7.903,0.058-11.656,1.421c-2.047,0.739-2.957,2.161-2.957,4.437c0.113,12.111,0.057,24.28,0.057,36.448
		c0,3.184-0.625,3.81-3.81,3.923c-2.615,0.058-5.231,0.058-7.847,0c-3.014-0.058-3.696-0.796-3.696-3.811
		c0-10.633,0-21.266,0-31.842c0-1.251-0.057-2.502-0.17-3.753c-0.455-5.63-1.82-6.88-7.336-6.938
		c-2.388-0.058-4.719,0.228-6.993,0.738c-4.606,1.139-5.288,1.935-5.288,6.71c0,11.315,0,22.574,0,33.891c0,0.682,0,1.364,0,2.047
		c-0.114,1.647-0.797,2.672-2.56,2.843c-3.468,0.229-6.88,0.229-10.349,0c-2.331-0.171-2.559-1.818-2.559-3.582
		C47.764,527.958,47.764,520.566,47.764,513.174z"/>
	<path fill="#93BB44" d="M397.063,513.117c0-7.107,0-14.158,0-21.268c0-4.604,1.251-6.425,5.516-7.96
		c10.747-3.81,21.721-5.23,33.036-3.753c2.614,0.342,5.061,1.309,6.88,3.354c0.797,0.91,1.422,0.739,2.389,0.228
		c9.325-4.833,19.276-5.061,29.283-3.24c5.914,1.08,8.416,4.832,8.586,11.656c0.171,7.393,0.114,14.841,0.114,22.232
		c0,6.937,0,13.816,0,20.754c0,3.128-0.684,3.867-3.811,3.98c-2.502,0.057-5.061,0.057-7.563,0c-3.241-0.113-3.867-0.854-3.867-4.15
		c0-10.804,0-21.607,0-32.354c0-1.422-0.113-2.843-0.284-4.265c-0.455-3.923-1.876-5.231-5.855-5.516
		c-3.469-0.284-6.88,0.283-10.18,1.308c-2.388,0.797-3.468,2.161-3.41,4.834c0.112,11.827,0.112,23.597,0.112,35.424
		c0,4.037-0.682,4.72-4.662,4.776c-2.273,0.058-4.549,0.058-6.822,0c-3.412-0.113-4.096-0.909-4.151-4.266
		c0-10.974,0-21.947,0-32.864c0-1.592-0.057-3.241-0.284-4.776c-0.512-2.786-1.989-4.094-4.775-4.378
		c-3.64-0.342-7.223-0.058-10.747,1.023c-3.185,0.966-3.866,1.933-3.866,5.288c0,11.542,0,23.085,0,34.628
		c0,4.775-0.512,5.288-5.401,5.345c-2.104,0-4.208,0.058-6.312,0c-3.071-0.113-3.867-0.966-3.867-4.037
		C397.063,527.787,397.063,520.452,397.063,513.117z"/>
	<path fill="#93BB44" d="M173.484,502.996c0-10.008,0-20.072,0-30.08c0-1.99,0.113-4.037,0.398-6.027
		c0.738-5.97,3.81-8.927,10.746-9.153c10.008-0.342,20.072-0.568,30.023,1.251c10.519,1.934,16.318,8.586,16.888,19.274
		c0.228,4.038,0.284,8.075-0.739,11.998c-2.616,9.725-9.609,14.103-18.992,15.694c-6.425,1.08-12.907,1.137-19.39,0.966
		c-2.16-0.057-2.899,0.398-2.843,2.729c0.171,8.357,0.057,16.718,0.057,25.02c0,3.525-0.739,4.321-4.265,4.436
		c-2.445,0.113-4.89,0.057-7.335,0c-3.582-0.058-4.436-0.909-4.492-4.55c-0.057-6.084,0-12.168,0-18.194
		C173.484,511.923,173.484,507.488,173.484,502.996z M189.575,483.663c0,3.014,0,6.084,0,9.098c0,0.967,0.171,1.592,1.364,1.592
		c5.231-0.057,10.463,0.285,15.637-0.682c5.971-1.138,8.644-4.549,8.644-10.576c0-1.251-0.171-2.502-0.342-3.753
		c-0.796-4.663-3.354-7.051-8.017-7.79c-4.436-0.683-8.928-0.512-13.363-0.512c-2.786,0-3.81,1.023-3.866,3.81
		C189.519,477.749,189.575,480.706,189.575,483.663z"/>
	<path fill="#92BB43" d="M548.256,509.251c0.057,5.003-0.342,9.894-1.422,14.783c-1.934,8.586-7.278,13.646-15.751,15.353
		c-7.448,1.535-14.897,1.535-22.289-0.396c-7.278-1.877-11.827-6.539-13.646-13.761c-2.332-9.383-2.445-18.878-0.343-28.316
		c2.219-10.064,8.645-15.638,19.675-17.059c5.913-0.739,11.94-0.739,17.854,0.454c8.984,1.819,14.159,8.132,15.296,18.31
		C548.029,502.143,548.256,505.668,548.256,509.251z M532.448,510.217c0-2.104,0.112-4.207,0-6.312
		c-0.626-8.813-4.037-11.771-12.852-11.146c-0.171,0-0.342,0-0.512,0c-4.947,0.398-7.79,2.673-8.928,7.449
		c-1.364,5.742-1.193,11.542-0.513,17.343c0.91,7.335,3.754,9.95,11.031,10.007c7.223,0.059,10.18-2.443,11.486-9.553
		C532.676,515.392,532.563,512.776,532.448,510.217z"/>
	<path fill="#93BB44" d="M285.045,513.458c0,5.118,0.057,10.292,0,15.41c-0.057,5.117-1.535,7.276-6.482,8.643
		c-9.894,2.672-20.015,3.811-30.25,2.274c-8.188-1.194-13.191-6.938-13.703-15.354c-0.114-2.273-0.228-4.604,0.17-6.822
		c1.309-7.733,6.027-11.885,14.5-13.192c6.027-0.909,12.055-0.853,18.139-0.454c1.649,0.113,2.161-0.342,2.161-1.99
		c0.057-7.051-1.649-8.928-8.813-9.154c-4.72-0.17-9.383,0.512-14.102,1.193c-1.138,0.171-2.332,0.341-3.525,0.455
		c-1.479,0.171-2.502-0.512-2.844-1.934c-0.512-2.104-1.08-4.208-1.193-6.425c-0.114-2.161,0.853-3.47,2.899-4.096
		c3.469-1.08,7.051-1.818,10.633-2.047c6.881-0.512,13.817-0.909,20.641,0.684c7.563,1.763,10.634,5.345,11.373,13.135
		c0.113,1.422,0.341,2.843,0.397,4.265C285.045,503.166,284.989,508.284,285.045,513.458
		C284.989,513.458,285.045,513.458,285.045,513.458z M261.675,514.425c-2.217,0.114-4.89-0.057-7.563,0.626
		c-3.411,0.854-4.89,2.786-4.89,6.313c0.057,3.81,1.763,6.141,4.947,6.937c3.184,0.739,6.312,0.455,9.495,0.058
		c4.776-0.683,5.687-1.648,5.743-6.426C269.579,514.481,269.579,514.481,261.675,514.425z"/>
	<path fill="#93BB44" d="M386.771,513.117c0,5.288,0.057,10.633,0,15.921c-0.058,5.004-1.535,7.106-6.369,8.416
		c-9.895,2.729-20.016,3.81-30.25,2.331c-8.358-1.194-13.305-6.88-13.875-15.809c-0.112-1.818-0.112-3.753,0.115-5.571
		c1.022-7.506,4.89-11.771,12.338-13.533c6.539-1.535,13.191-1.421,19.846-0.967c2.33,0.171,3.07-0.568,2.729-2.729
		c-0.113-0.737-0.113-1.535-0.113-2.273c-0.17-3.64-1.309-4.946-4.891-5.687c-5.971-1.193-11.884-0.114-17.798,0.684
		c-0.228,0.057-0.513,0.112-0.739,0.17c-4.833,0.796-5.345,0.455-6.312-4.266c-0.228-1.08-0.398-2.159-0.568-3.24
		c-0.284-2.389,0.568-4.037,3.07-4.776c10.008-2.786,20.129-3.24,30.307-1.479c8.929,1.535,12.226,6.142,12.511,16.205
		c0.17,5.459,0,10.976,0,16.434C386.713,513.117,386.771,513.117,386.771,513.117z M363.969,514.368
		c-2.786,0.112-5.459,0-8.132,0.625c-3.469,0.854-4.662,2.502-4.662,6.369c0.057,3.979,1.535,6.141,4.891,6.88
		c2.559,0.567,5.175,0.567,7.732,0.228c7.221-1.022,7.448-1.251,7.448-8.473c0-5.288,0-5.288-5.174-5.516
		C365.39,514.481,364.594,514.425,363.969,514.368z"/>
	<path fill="#93BB45" d="M296.816,513.23c0-6.993,0.113-13.987-0.057-20.981c-0.057-4.037,1.592-6.767,5.288-8.358
		c8.528-3.64,17.456-4.891,26.667-4.037c3.525,0.284,4.379,1.422,4.266,4.946c-0.058,1.764-0.228,3.525-0.455,5.288
		c-0.284,2.332-1.648,3.355-3.979,3.241c-3.354-0.17-6.653-0.568-10.063,0c-5.004,0.796-6.143,1.934-6.143,6.994
		c0,11.543,0,23.086,0,34.629c0,3.411-0.682,4.149-4.094,4.265c-2.502,0.058-5.061,0.058-7.563,0
		c-3.071-0.113-3.867-0.91-3.867-3.979C296.816,527.901,296.816,520.566,296.816,513.23z"/>
	<path fill="#284273" d="M144.485,510.047c0-8.357,0-16.66,0-25.02c0-3.241,0.796-4.037,3.98-4.095c2.502-0.057,5.061-0.057,7.563,0
		c3.184,0.058,4.037,0.854,4.037,4.095c0,9.041,0,18.024,0,27.065c0,7.563,0,15.183,0,22.744c0,3.525-0.739,4.265-4.265,4.321
		c-2.445,0.058-4.891,0.058-7.335,0c-3.299-0.058-3.98-0.796-3.98-4.094C144.428,526.707,144.485,518.349,144.485,510.047z"/>
	<path fill="#294473" d="M143.916,463.079c0.057-5.687,2.843-8.529,8.301-8.472c5.971,0.057,8.473,2.729,8.359,9.098
		c-0.058,5.629-2.9,8.357-8.473,8.302C146.531,471.949,143.802,468.936,143.916,463.079z"/>
	<path fill="#727271" d="M195.091,575.096c0-4.265,0-7.847,0-11.429c0-1.194,0-2.104,1.648-2.104c1.649,0,1.706,0.854,1.706,2.049
		c-0.057,4.604,0,9.268-0.057,13.874c0,0.853,0.625,2.273-1.023,2.331c-1.308,0.057-2.729,0.567-3.696-1.194
		c-2.274-3.98-4.776-7.847-7.619-12.396c0,4.378,0,8.019,0,11.656c0,1.251-0.057,2.047-1.706,2.047
		c-1.763,0-1.535-1.137-1.535-2.217c0-4.605-0.057-9.269,0-13.875c0-0.796-0.568-2.16,0.91-2.16c1.308-0.057,2.729-0.683,3.753,1.08
		c2.047,3.641,4.378,7.165,6.596,10.747C194.295,573.845,194.523,574.188,195.091,575.096z"/>
	<path fill="#727271" d="M319.446,574.471c0-3.695,0-7.335,0-11.03c0-1.139,0.113-1.878,1.593-1.878c1.422,0,1.649,0.627,1.649,1.82
		c-0.059,4.719,0,9.438-0.059,14.158c0,0.854,0.626,2.274-1.023,2.331c-1.308,0.057-2.672,0.455-3.639-1.308
		c-2.218-3.925-4.72-7.733-7.506-12.168c0,4.32,0,7.96,0,11.6c0,1.137,0,1.933-1.535,1.933c-1.422,0-1.877-0.512-1.877-1.933
		c0.059-4.72,0-9.439,0.059-14.159c0-0.796-0.569-2.16,0.853-2.217c1.308-0.058,2.786-0.739,3.81,1.022
		c2.332,3.979,4.834,7.903,7.223,11.827C319.104,574.527,319.276,574.527,319.446,574.471z"/>
	<path fill="#727271" d="M390.808,574.471c0-3.695,0.057-7.335,0-11.03c0-1.194,0.113-1.878,1.592-1.878
		c1.535,0,1.593,0.798,1.535,1.935c0,4.72,0,9.438-0.058,14.158c0,0.797,0.569,2.104-0.853,2.218
		c-1.309,0.057-2.729,0.683-3.754-1.08c-2.273-3.979-4.775-7.847-7.563-11.6c0,3.639,0,7.277,0,10.974
		c0,1.138-0.113,1.877-1.592,1.877s-1.877-0.567-1.82-1.934c0.059-4.721,0-9.438,0.059-14.158c0-0.796-0.513-2.161,0.908-2.218
		c1.309-0.058,2.729-0.739,3.754,1.022c2.33,3.98,4.832,7.903,7.277,11.827C390.466,574.527,390.636,574.471,390.808,574.471z"/>
	<path fill="#727271" d="M547.233,570.718c0-2.218,0.112-4.379-0.059-6.596c-0.112-1.877,0.284-2.844,2.445-2.56
		c1.479,0.171,3.014,0,4.549,0.058c4.891,0.057,8.019,3.241,8.188,8.357c0.228,5.972-2.502,9.609-7.563,10.009
		c-7.563,0.682-7.563,0.682-7.563-6.768C547.233,572.424,547.233,571.57,547.233,570.718z M550.531,570.774
		c0,1.422,0.057,2.843,0,4.265c-0.114,1.592,0.341,2.273,2.047,2.218c2.502-0.057,4.833-0.342,5.743-3.069
		c0.967-2.845,1.192-5.801-0.968-8.359c-1.648-1.99-4.094-1.705-6.084-1.193c-1.593,0.397-0.568,2.331-0.738,3.525
		C550.416,569.068,550.531,569.922,550.531,570.774z"/>
	<path fill="#727271" d="M251.895,572.025c2.275,1.363,2.844,3.695,3.753,5.742c0.285,0.625,1.365,1.648,0.114,2.048
		c-0.91,0.341-2.389,0.738-3.07-0.797c-0.398-0.854-0.739-1.706-1.138-2.559c-0.512-1.081-1.08-2.104-2.104-2.787
		c-1.365-0.853-2.957-1.25-4.321-0.625c-1.023,0.512-0.342,1.99-0.455,3.014c-0.057,0.739-0.057,1.535,0,2.274
		c0.113,1.194-0.398,1.592-1.593,1.592c-1.25,0-1.819-0.284-1.819-1.705c0.057-4.947,0.057-9.951,0-14.897
		c0-1.309,0.398-1.819,1.763-1.764c1.99,0.114,4.037,0,6.084,0c3.525,0,5.459,1.194,6.255,3.641
		C256.103,567.988,255.25,569.751,251.895,572.025z M244.674,567.192c-0.342,1.989-0.057,3.184,2.445,3.014
		c3.468-0.229,5.117-1.081,5.061-3.185c-0.058-1.935-1.365-2.503-4.834-2.729C244.958,564.122,244.162,564.975,244.674,567.192z"/>
	<path fill="#727271" d="M286.012,571.286c0-7.278,4.321-11.088,10.405-9.78c2.9,0.626,4.775,2.445,5.688,5.175
		c0.91,2.73,0.91,5.458,0,8.188c-1.252,3.81-4.664,5.8-8.984,5.346c-3.582-0.397-6.425-3.185-6.994-6.938
		C286.069,572.48,286.069,571.627,286.012,571.286z M299.317,570.718c0.113-1.193-0.113-2.502-0.683-3.753
		c-0.796-1.763-2.218-2.673-4.15-2.786c-1.934-0.113-3.469,0.796-4.321,2.502c-1.309,2.729-1.365,5.517,0.057,8.245
		c1.479,2.844,5.345,3.354,7.448,1.08C299.033,574.584,299.374,572.821,299.317,570.718z"/>
	<path fill="#727271" d="M88.476,570.718c0-2.331,0.057-4.72,0-7.051c-0.057-1.422,0.284-2.161,1.934-2.104
		c3.185,0.114,6.368,0,9.609,0.059c0.568,0,1.706-0.569,1.649,0.796c-0.058,1.023-0.284,2.047-1.706,2.047
		c-1.934,0-3.866,0.171-5.8-0.057c-2.047-0.171-2.331,0.739-2.331,2.502c0,1.705,0.341,2.502,2.217,2.273
		c1.422-0.171,2.844,0,4.265-0.058c0.91-0.057,1.422,0.229,1.422,1.251c0,1.024-0.341,1.593-1.422,1.536c-1.08-0.059-2.16,0-3.298,0
		c-3.07,0-3.81,1.08-3.127,4.15c0.228,1.079,0.909,1.022,1.706,1.022c2.16,0,4.378,0,6.539,0c1.023,0,1.763,0.114,1.763,1.479
		c0,1.364-0.739,1.479-1.763,1.479c-3.299,0-6.539-0.057-9.838,0c-1.308,0-1.819-0.455-1.763-1.763
		C88.532,575.778,88.476,573.276,88.476,570.718z"/>
	<path fill="#727271" d="M482.297,571.969c1.99,1.535,2.843,3.64,3.639,5.8c0.229,0.625,1.309,1.648,0,2.048
		c-0.967,0.341-2.388,0.625-3.014-0.91c-0.455-1.193-1.022-2.274-1.592-3.411c-0.512-1.023-1.251-1.763-2.331-2.161
		c-3.128-1.194-4.095-0.512-4.095,2.729c0,0.739-0.058,1.535,0,2.274c0.057,1.138-0.229,1.706-1.535,1.706
		c-1.137,0-1.648-0.342-1.648-1.592c0.058-5.063,0.058-10.122,0-15.184c0-1.193,0.342-1.647,1.592-1.592
		c2.274,0.058,4.55,0,6.823,0.058c2.957,0.057,4.947,1.479,5.517,3.924c0.625,2.615-0.342,4.604-2.729,5.855
		C482.751,571.514,482.581,571.741,482.297,571.969z M477.975,564.235c-2.729-0.513-3.524,0.738-3.127,3.24
		c0.171,0.91-0.625,2.331,0.739,2.56c1.876,0.341,3.866,0.455,5.629-0.625c0.967-0.569,1.251-1.479,1.194-2.616
		s-0.739-1.876-1.764-2.218C479.852,564.406,478.885,564.349,477.975,564.235z"/>
	<path fill="#727271" d="M334.628,570.661c0-2.445,0.057-4.892,0-7.336c-0.057-1.309,0.341-1.819,1.706-1.763
		c1.763,0.113,3.524,0,5.288,0c5.061,0.058,8.131,3.582,8.074,9.212c0,5.516-3.07,8.983-8.019,9.041
		c-2.274,0-5.116,0.967-6.596-0.398c-1.479-1.364-0.343-4.321-0.455-6.539C334.571,572.196,334.628,571.457,334.628,570.661z
		 M337.698,570.718c0,1.706,0.057,3.354,0,5.062c-0.057,1.08,0.341,1.479,1.422,1.479c2.502,0.058,5.061,0.058,6.313-2.559
		c1.363-2.786,1.308-5.743-0.398-8.416c-1.535-2.445-4.207-2.047-6.426-1.648c-1.934,0.341-0.683,2.389-0.909,3.582
		C337.585,569.012,337.698,569.922,337.698,570.718z"/>
	<path fill="#727271" d="M77.672,579.645c-2.047,0.569-3.582,0.513-4.207-1.818c-0.114-0.568-0.455-1.138-1.194-1.138
		c-2.331,0-4.72-0.058-7.051,0c-1.08,0-1.138,1.081-1.479,1.819c-0.341,0.796-0.683,1.421-1.763,1.421
		c-1.649,0.059-2.331-0.17-1.535-2.047c2.104-4.945,4.321-9.837,5.856-15.011c0.284-0.967,0.854-1.422,1.819-1.251
		c0.967,0.17,2.389-0.683,2.844,0.796C72.839,568.329,75.569,573.845,77.672,579.645z M68.802,565.714
		c-0.568,1.479-1.023,2.786-1.535,4.15c-1.592,4.208-1.592,4.208,2.9,3.979c1.25-0.057,1.648-0.228,1.08-1.592
		C70.394,570.149,69.655,568.045,68.802,565.714z"/>
	<path fill="#727271" d="M163.59,579.701c-2.104,0.513-3.64,0.455-4.095-1.819c-0.057-0.17-0.113-0.341-0.227-0.455
		c-1.081-1.592-8.644-0.909-9.439,0.854c-0.398,0.853-0.568,1.706-1.819,1.706c-1.593,0-2.389-0.114-1.535-2.048
		c2.047-4.946,4.321-9.838,5.856-15.012c0.341-1.138,1.023-1.422,2.047-1.251c0.967,0.171,2.274-0.567,2.729,1.023
		C158.756,568.443,161.543,573.845,163.59,579.701z M154.719,565.714c-0.568,1.592-1.023,2.843-1.478,4.094
		c-1.706,4.437-1.706,4.38,3.07,4.037c1.193-0.057,1.421-0.396,0.967-1.479C156.368,570.263,155.629,568.159,154.719,565.714z"/>
	<path fill="#727271" d="M489.916,579.872c2.218-6.084,4.947-11.543,6.652-17.343c0.397-1.364,1.479-0.909,2.273-0.909
		c0.854,0,1.877-0.455,2.274,0.909c1.706,5.459,4.15,10.633,6.198,15.979c0.171,0.512,0.683,1.251-0.342,1.309
		c-0.91,0.057-2.444,0.625-2.729-0.568c-0.91-3.696-3.753-2.502-6.084-2.673c-1.99-0.113-3.98-0.341-4.721,2.444
		C493.043,580.668,491.395,579.701,489.916,579.872z M498.843,565.714c-0.512,1.535-0.966,2.843-1.479,4.208
		c-1.648,4.207-1.421,4.436,3.185,3.923c1.08-0.112,1.309-0.455,0.91-1.421C500.549,570.206,499.753,568.045,498.843,565.714z"/>
	<path fill="#727271" d="M564.973,579.701c2.104-5.856,4.833-11.201,6.482-16.944c0.396-1.479,1.422-1.137,2.388-1.137
		c0.967,0,1.99-0.284,2.39,1.137c1.534,5.231,3.979,10.179,5.855,15.296c0.229,0.568,0.967,1.364,0.057,1.706
		c-0.908,0.341-2.159,0.683-2.955-0.512c-0.569-0.854-0.398-2.445-1.764-2.502c-2.444-0.171-4.891-0.059-7.336,0
		c-0.625,0-0.853,0.567-0.966,1.022C568.669,580.1,567.076,580.271,564.973,579.701z M573.843,565.543
		c-1.08,2.957-1.989,5.459-2.898,7.961c6.026,0.909,6.026,0.909,4.094-4.492C574.697,568.045,574.355,567.021,573.843,565.543z"/>
	<path fill="#727271" d="M353.961,570.604c0-2.33,0.058-4.719,0-7.051c-0.058-1.363,0.341-1.933,1.819-1.933
		c3.185,0.113,6.425,0,9.609,0.057c0.625,0,1.705-0.512,1.705,0.796c0,1.08-0.283,2.047-1.648,2.047c-2.104,0-4.207,0.114-6.313,0
		c-2.16-0.112-1.592,1.365-1.705,2.56c-0.058,1.251-0.171,2.389,1.764,2.218c1.478-0.171,3.013,0,4.549-0.057
		c0.854,0,1.421,0.113,1.479,1.193c0,1.138-0.455,1.479-1.535,1.422c-1.365-0.058-2.729,0.113-4.037-0.058
		c-2.16-0.284-2.332,0.91-2.217,2.56c0.112,1.422-0.514,3.128,2.104,2.899c2.104-0.171,4.208,0,6.313-0.057
		c0.967,0,1.648,0.17,1.648,1.364c0,1.193-0.626,1.363-1.594,1.363c-3.354,0-6.766-0.057-10.12,0c-1.308,0-1.763-0.453-1.763-1.763
		C354.019,575.664,353.961,573.105,353.961,570.604z"/>
	<path fill="#727271" d="M34.231,580.271c-1.934,0.17-3.582-0.455-5.288-0.91c-0.91-0.229-1.593-0.513-1.138-1.706
		c0.398-1.023,0.796-1.592,1.99-1.08c1.763,0.683,3.582,0.967,5.459,0.796c1.251-0.113,2.388-0.568,2.672-1.876
		c0.285-1.422-0.796-2.104-1.933-2.56c-1.763-0.738-3.64-1.364-5.402-2.16c-2.104-0.91-3.014-2.615-2.786-4.891
		c0.228-2.274,1.649-3.583,3.81-4.208c2.502-0.683,5.004-0.284,7.449,0.397c0.967,0.285,1.479,0.683,1.08,1.763
		c-0.341,1.081-0.909,1.422-2.047,1.024c-1.479-0.514-3.07-0.968-4.72-0.569c-1.023,0.228-1.99,0.683-2.16,1.819
		c-0.171,1.251,0.682,1.819,1.648,2.274c1.535,0.625,3.128,1.193,4.72,1.819c3.298,1.421,4.265,2.957,3.753,5.97
		c-0.398,2.275-2.445,3.812-5.401,4.095C35.311,580.327,34.742,580.271,34.231,580.271z"/>
	<path fill="#727271" d="M111.903,580.271c-1.876,0.112-3.639-0.455-5.458-0.968c-0.967-0.284-1.138-0.853-0.854-1.706
		c0.284-0.909,0.683-1.479,1.819-1.08c1.934,0.684,3.924,1.08,5.971,0.797c1.138-0.172,2.161-0.568,2.389-1.876
		c0.228-1.365-0.739-1.99-1.763-2.445c-1.763-0.739-3.64-1.365-5.402-2.104c-2.218-0.908-3.241-2.614-2.957-5.003
		c0.228-2.444,1.82-3.695,4.038-4.265c2.559-0.626,5.003-0.171,7.448,0.568c0.967,0.283,1.194,0.738,0.853,1.647
		c-0.341,0.797-0.568,1.593-1.763,1.138c-1.592-0.567-3.24-1.08-4.946-0.683c-0.967,0.229-2.047,0.512-2.218,1.763
		c-0.171,1.194,0.626,1.877,1.592,2.274c1.422,0.569,2.844,1.081,4.265,1.593c3.469,1.364,4.776,3.127,4.321,5.913
		c-0.454,2.673-2.786,4.321-6.254,4.437C112.529,580.327,112.244,580.271,111.903,580.271z"/>
	<path fill="#727271" d="M266.736,580.271c-1.819,0.112-3.468-0.455-5.174-0.91c-1.138-0.284-1.535-0.854-1.138-1.99
		c0.342-1.023,0.91-1.137,1.934-0.796c1.819,0.626,3.753,1.022,5.743,0.739c1.137-0.172,2.16-0.568,2.445-1.819
		c0.284-1.365-0.683-2.047-1.706-2.445c-1.649-0.683-3.355-1.193-4.947-1.876c-2.729-1.193-3.866-3.014-3.469-5.459
		c0.455-2.673,2.274-3.753,4.72-4.208c2.331-0.396,4.492,0.058,6.71,0.684c0.909,0.283,1.308,0.683,0.909,1.592
		c-0.341,0.739-0.512,1.648-1.705,1.251c-1.422-0.512-2.9-0.967-4.436-0.796c-1.194,0.171-2.445,0.341-2.729,1.763
		c-0.284,1.479,0.854,2.104,1.934,2.559c1.308,0.568,2.672,0.968,4.037,1.479c3.298,1.308,4.549,3.07,4.15,5.8
		c-0.397,2.615-2.615,4.321-5.913,4.492C267.589,580.327,267.191,580.271,266.736,580.271z"/>
	<path fill="#727271" d="M442.096,580.271c-1.818,0.112-3.469-0.455-5.175-0.91c-1.08-0.284-1.592-0.625-1.137-1.935
		c0.455-1.308,1.137-1.192,2.104-0.853c1.764,0.567,3.582,0.967,5.459,0.683c1.194-0.171,2.389-0.626,2.615-1.99
		c0.229-1.364-0.853-1.934-1.876-2.389c-1.763-0.796-3.582-1.364-5.402-2.16c-2.33-0.967-3.184-2.844-2.843-5.288
		c0.341-2.331,1.876-3.412,4.037-3.924c2.56-0.625,5.004-0.113,7.449,0.626c0.739,0.229,1.192,0.568,0.796,1.479
		c-0.342,0.737-0.398,1.763-1.649,1.363c-1.421-0.455-2.898-0.909-4.435-0.796c-1.365,0.058-2.673,0.455-2.9,1.934
		c-0.228,1.422,0.968,2.048,2.047,2.502c1.309,0.512,2.674,0.967,4.037,1.479c3.355,1.365,4.55,3.07,4.096,5.743
		c-0.455,2.673-2.616,4.265-5.914,4.436C442.892,580.327,442.494,580.271,442.096,580.271z"/>
	<path fill="#727271" d="M418.669,570.661c0-2.445,0.057-4.892,0-7.336c-0.057-1.364,0.397-1.763,1.706-1.705
		c3.184,0.057,6.425,0,9.609,0.057c0.625,0,1.763-0.512,1.706,0.684c0,0.966-0.229,2.104-1.649,2.104c-2.104,0-4.208,0.113-6.313,0
		c-2.16-0.171-1.876,1.194-1.989,2.56c-0.113,1.534,0.228,2.389,2.047,2.218c1.592-0.171,3.185,0,4.776-0.058
		c1.079-0.058,1.25,0.513,1.25,1.422c0,0.854-0.341,1.193-1.193,1.193c-1.763,0-3.525,0-5.288,0
		c-2.217-0.057-1.478,1.649-1.478,2.729s-0.684,2.729,1.534,2.673c2.274-0.059,4.55,0,6.823,0c1.023,0,1.819,0.113,1.763,1.478
		c-0.057,1.31-0.854,1.251-1.706,1.251c-3.298,0-6.538-0.057-9.837,0c-1.308,0.059-1.763-0.396-1.706-1.763
		C418.726,575.664,418.669,573.162,418.669,570.661z"/>
	<path fill="#727271" d="M236.77,561.62c0.171,2.273-0.853,3.07-2.843,2.898c-1.648-0.112-3.354,0.114-5.061-0.057
		c-2.218-0.228-1.876,1.194-1.934,2.56c-0.057,1.479,0.114,2.444,1.99,2.218c1.479-0.171,3.014,0,4.549-0.058
		c1.023,0,1.593,0.229,1.535,1.422c-0.057,1.08-0.625,1.25-1.478,1.25c-1.593,0-3.185,0.059-4.776,0
		c-1.251-0.057-1.763,0.284-1.82,1.649c-0.113,3.753-0.17,3.753,3.469,3.753c1.763,0,3.525,0,5.288,0
		c0.91,0,1.365,0.341,1.365,1.309c0,0.967-0.342,1.363-1.309,1.363c-3.525,0-7.051-0.057-10.633,0c-1.194,0-1.308-0.682-1.308-1.592
		c0-5.061,0-10.121,0-15.182c0-1.023,0.228-1.535,1.364-1.535C229.037,561.677,232.904,561.62,236.77,561.62z"/>
	<path fill="#727271" d="M10.861,570.604c0-2.33,0.113-4.719-0.057-7.051c-0.114-1.647,0.568-1.99,2.047-1.933
		c3.014,0.113,6.084,0,9.098,0.057c0.625,0,1.934-0.683,1.876,0.796c-0.057,1.139-0.454,2.104-1.99,2.047
		c-1.989-0.057-4.037,0.114-6.084-0.057s-1.819,1.137-1.819,2.445c0,1.251-0.284,2.615,1.819,2.388c1.593-0.171,3.185,0,4.776-0.057
		c0.91,0,1.422,0.228,1.422,1.251c0,0.967-0.398,1.363-1.308,1.363c-1.251,0-2.502,0-3.81,0c-2.616,0-3.98,2.39-2.844,4.776
		c0.398,0.854,1.138,0.569,1.763,0.569c2.161,0.057,4.379,0.057,6.597,0c1.023,0,1.819,0.057,1.763,1.478
		c-0.058,1.31-0.854,1.251-1.706,1.251c-3.298,0-6.596-0.057-9.837,0c-1.365,0.059-1.763-0.454-1.706-1.763
		C10.861,575.664,10.861,573.162,10.861,570.604z"/>
	<path fill="#727271" d="M413.609,568.443c0,1.763,0.112,3.524,0,5.288c-0.229,4.036-2.845,6.425-6.882,6.538
		c-4.49,0.113-7.447-2.104-7.731-6.197c-0.229-3.696-0.059-7.393-0.114-11.146c0-1.193,0.626-1.364,1.593-1.364
		s1.593,0.171,1.593,1.364c-0.058,3.127-0.114,6.255,0,9.325c0.112,3.411,1.706,5.117,4.32,5.061c2.56-0.057,3.98-1.648,4.037-4.775
		c0.058-2.843,0-5.743,0.058-8.586c0-1.08-0.513-2.389,1.534-2.445c1.935-0.057,1.649,1.138,1.649,2.331
		C413.665,565.43,413.665,566.908,413.609,568.443C413.665,568.443,413.665,568.443,413.609,568.443z"/>
	<path fill="#727271" d="M534.894,561.848c-2.104,5.856-4.891,11.201-6.538,17.059c-0.398,1.422-1.594,0.91-2.503,0.967
		c-0.967,0.114-1.706,0-2.048-1.251c-1.478-5.117-3.752-9.894-5.686-14.784c-0.229-0.625-1.309-1.705-0.229-2.104
		c1.08-0.399,2.674-0.739,3.354,1.138c1.309,3.695,3.185,7.221,4.265,11.03c0.171,0.568,0.398,1.081,0.684,1.877
		c1.08-4.266,3.069-7.904,4.378-11.771C531.311,561.677,532.619,561.165,534.894,561.848z"/>
	<path fill="#727271" d="M210.955,575.607c1.535-3.924,3.127-7.619,4.435-11.372c0.797-2.219,1.934-3.241,4.492-2.331
		c-1.421,3.524-2.899,7.051-4.321,10.633c-0.683,1.818-1.422,3.582-1.934,5.459c-0.397,1.421-1.023,1.99-2.615,1.99
		c-1.592,0-2.047-0.626-2.559-2.049c-1.706-4.719-3.64-9.382-5.402-14.102c-0.227-0.625-1.592-1.648-0.057-2.104
		c1.08-0.342,2.502-0.568,3.128,1.193C207.657,567.136,209.761,571.115,210.955,575.607z"/>
	<path fill="#727271" d="M459.95,561.62c2.104,0,4.208,0,6.312,0c0.91,0,1.422,0.228,1.422,1.251c0,0.966-0.171,1.647-1.364,1.647
		c-0.058,0-0.171,0-0.229,0c-4.492,0.398-4.492,0.398-4.492,5.062c0,2.786-0.057,5.572,0,8.302c0.059,1.365-0.057,2.274-1.818,2.218
		c-1.648-0.057-1.648-0.967-1.648-2.104c0.058-3.696-0.114-7.394,0.058-11.088c0.057-1.935-0.513-2.616-2.39-2.39
		c-0.853,0.114-1.706,0-2.502,0c-1.022,0-1.192-0.683-1.192-1.534c0-0.968,0.341-1.364,1.308-1.364
		C455.572,561.677,457.789,561.62,459.95,561.62z"/>
	<path fill="#727271" d="M52.085,561.62c2.047,0,4.037,0,6.084,0c0.909,0,1.648,0.057,1.648,1.308c0,1.194-0.568,1.535-1.705,1.648
		c-4.663,0.342-4.663,0.397-4.663,5.118c0,2.843-0.057,5.742,0,8.586c0.057,1.308-0.455,1.763-1.763,1.763
		c-1.364,0-1.422-0.739-1.422-1.763c0-3.867-0.057-7.733,0.058-11.601c0.057-1.648-0.512-2.273-2.161-2.104
		c-0.91,0.114-1.876,0-2.786,0c-1.023,0-1.194-0.625-1.194-1.479c0-0.909,0.228-1.421,1.251-1.363
		C47.706,561.677,49.924,561.62,52.085,561.62z"/>
	<path fill="#727271" d="M130.269,570.831c0-2.104-0.113-4.207,0.058-6.313c0.057-1.079-1.024-2.843,1.421-2.956
		c2.445-0.058,1.535,1.705,1.592,2.844c0.114,3.639,0.114,7.221,0,10.859c-0.057,1.593,0.513,2.047,2.048,1.99
		c1.819-0.114,3.695,0,5.572-0.057c1.023,0,1.535,0.284,1.479,1.421c0,1.022-0.512,1.251-1.422,1.251c-3.127,0-6.255-0.057-9.325,0
		c-1.138,0-1.479-0.455-1.422-1.479C130.326,575.892,130.326,573.39,130.269,570.831z"/>
	<path fill="#727271" d="M281.576,571.059c0,2.445-0.057,4.892,0,7.336c0.058,1.193-0.397,1.648-1.592,1.648
		c-1.195,0-1.876-0.284-1.876-1.648c0.057-5.062,0.057-10.121,0-15.183c0-1.479,0.682-1.592,1.876-1.648
		c1.251,0,1.592,0.454,1.535,1.648C281.52,565.827,281.576,568.443,281.576,571.059z"/>
	<path fill="#727271" d="M538.703,571.002c0-2.502,0.057-5.061,0-7.563c-0.057-1.251,0.284-1.819,1.705-1.819
		c1.309,0,1.764,0.396,1.764,1.705c-0.058,4.947-0.058,9.951,0,14.897c0,1.251-0.285,1.819-1.648,1.819
		c-1.309,0-1.819-0.397-1.764-1.763C538.76,575.892,538.703,573.447,538.703,571.002z"/>
	<path fill="#727271" d="M177.805,571.002c0,2.445-0.057,4.89,0,7.278c0,1.137-0.341,1.706-1.592,1.647
		c-1.138,0-1.934-0.112-1.877-1.592c0.058-5.061,0.058-10.063,0-15.125c0-1.422,0.626-1.648,1.82-1.648
		c1.193,0,1.648,0.397,1.648,1.593C177.748,565.771,177.805,568.387,177.805,571.002z"/>
	<path fill="#727271" d="M298.522,556.56c-1.536,1.764-2.729,3.924-5.63,3.07C293.802,556.332,294.712,555.82,298.522,556.56z"/>
</g>
<g>
	<g>
		<path fill="#254071" d="M272.877,256.957c-3.014,4.15-5.63,8.416-7.79,12.908c-5.117,10.746-7.677,22.062-7.165,34.003
			c0.455,11.657,4.492,21.778,12.851,30.022c4.095,4.037,8.813,7.335,13.704,10.35c4.436,2.729,8.927,5.401,12.907,8.813
			c7.506,6.425,13.762,13.817,17.799,22.973c5.061,11.655,4.89,23.369,0.112,35.025c-3.979,9.725-10.178,17.686-19.275,23.029
			c-7.335,4.265-15.239,5.743-23.598,5.004c-16.547-1.479-30.534-8.645-42.418-20.129c-14.614-14.158-23.769-31.559-27.123-51.744
			c-5.175-31.558,2.843-59.42,24.336-82.96c12.396-13.533,27.578-22.517,45.262-27.181
			C272.479,257.014,272.593,257.014,272.877,256.957z"/>
	</g>
	<g>
		<path fill="#92BA42" d="M286.296,334.857c1.99-0.739,3.696-1.422,5.402-2.274c5.401-2.729,9.949-6.425,14.102-10.519
			c4.094-3.98,7.619-8.416,11.485-12.566c2.389-2.559,4.89-5.061,7.961-6.938c2.444-1.479,5.062-2.502,8.073-2.047
			c2.389,0.398,4.095,1.764,5.744,3.241c3.922,3.525,7.051,7.62,10.006,11.771c4.037,5.686,8.133,11.372,12.795,16.659
			c2.673,3.015,5.63,5.743,9.269,7.733c6.255,3.354,12.737,3.639,19.333,0.91c1.023-0.455,1.023-0.455,1.137,0.567
			c0.513,4.379,0.569,8.813,0.342,13.192c-0.625,11.998-3.695,23.427-9.383,34.288c-4.719,9.041-11.088,17.058-18.139,24.677
			c-4.605,4.947-9.382,9.725-14.441,14.329c-11.941,10.747-25.021,20.188-39.859,27.521c-9.041,4.49-18.48,8.073-28.431,10.519
			c-1.479,0.342-2.843,0.342-4.265-0.17c-2.445-0.91-3.185-3.128-1.706-5.061c0.796-1.081,1.819-2.048,2.843-2.957
			c3.469-3.186,7.393-5.801,11.146-8.644c5.401-4.15,10.519-8.587,15.638-13.021c4.775-4.151,9.153-8.529,12.963-13.419
			c5.688-7.394,9.213-15.523,10.405-24.451c1.422-10.349-0.567-20.242-5.288-29.682c-5.97-11.884-15.238-21.151-27.406-28.032
			c-2.844-1.593-5.743-3.241-8.586-4.833C287.092,335.369,286.808,335.198,286.296,334.857z"/>
	</g>
	<g>
		<path fill="#EBB51B" d="M300.058,253.545c5.629,0,10.233,0.854,14.84,1.934c14.442,3.242,27.578,9.383,39.349,18.195
			c11.315,8.416,20.241,18.821,27.065,31.104c2.16,3.924,3.979,7.903,5.572,12.055c0.797,2.104,1.819,4.037,2.559,6.198
			c0.058,0.227,0.113,0.512,0.229,0.738c0.682,1.649,0.113,2.9-1.023,4.095c-2.787,2.843-6.994,3.24-10.405,0.853
			c-2.218-1.479-3.923-3.469-5.517-5.516c-4.149-5.118-7.789-10.633-11.371-16.149c-3.015-4.605-6.199-9.154-9.951-13.191
			c-2.502-2.729-5.23-5.174-8.528-6.937c-5.63-2.899-11.431-2.957-17.286-0.796c-4.436,1.592-8.074,4.378-11.429,7.62
			c-3.696,3.524-6.824,7.563-10.009,11.485c-3.24,4.037-6.595,7.961-10.52,11.373c-3.411,2.957-7.164,5.459-11.6,6.652
			c-3.98,1.081-6.88,0.171-9.382-3.014c-0.739-0.91-1.308-1.934-1.819-3.014c-1.535-3.412-2.389-6.938-2.786-10.634
			c-1.251-11.485,1.364-22.29,6.255-32.638c2.388-5.004,5.345-9.553,9.382-13.477c2.729-2.672,5.8-4.891,9.553-5.971
			C295.678,253.773,298.294,253.489,300.058,253.545z"/>
	</g>
</g>
</svg>
