<?xml version="1.0" encoding="utf-8"?>
<!-- Generator: Adobe Illustrator 16.0.3, SVG Export Plug-In . SVG Version: 6.00 Build 0)  -->
<!DOCTYPE svg PUBLIC "-//W3C//DTD SVG 1.1//EN" "http://www.w3.org/Graphics/SVG/1.1/DTD/svg11.dtd">
<svg version="1.1" id="Capa_1" xmlns="http://www.w3.org/2000/svg" xmlns:xlink="http://www.w3.org/1999/xlink" x="0px" y="0px"
	 width="960px" height="569px" viewBox="0 0 960 569" enable-background="new 0 0 960 569" xml:space="preserve">
<g id="sombraAgua" display="none">
	<g display="inline">
		
			<image overflow="visible" enable-background="new    " width="195" height="254" xlink:href="CC03446F.png"  transform="matrix(0.9949 0 0 0.9961 346.0598 -13.4116)">
		</image>
	</g>
</g>
<g id="sombraMontana" display="none">
	<g display="inline">
		
			<image overflow="visible" enable-background="new    " width="193" height="243" xlink:href="CC03446D.png"  transform="matrix(1 0 0 1 419.0002 29.9995)">
		</image>
	</g>
</g>
<g id="sombraTierra">
	<g>
		
			<image overflow="visible" enable-background="new    " width="194" height="148" xlink:href="CC034473.png"  transform="matrix(1 0 0 1 414.0002 -17)">
		</image>
	</g>
</g>
<g id="logo">
	<g>
		<g>
			<path fill="#254071" d="M455.895,21.635c-3.014,4.15-5.63,8.416-7.79,12.908c-5.117,10.746-7.677,22.062-7.165,34.003
				c0.455,11.657,4.492,21.778,12.851,30.022c4.096,4.037,8.813,7.335,13.704,10.35c4.437,2.729,8.928,5.401,12.907,8.813
				c7.506,6.425,13.762,13.817,17.799,22.973c5.062,11.655,4.891,23.369,0.112,35.025c-3.979,9.725-10.178,17.686-19.275,23.029
				c-7.335,4.265-15.238,5.743-23.598,5.004c-16.547-1.479-30.534-8.645-42.418-20.129c-14.614-14.158-23.769-31.559-27.123-51.744
				c-5.175-31.558,2.843-59.42,24.336-82.96c12.396-13.533,27.578-22.517,45.262-27.181
				C455.496,21.691,455.61,21.691,455.895,21.635z"/>
		</g>
		<g>
			<path fill="#92BA42" d="M469.313,99.535c1.99-0.739,3.696-1.422,5.402-2.274c5.4-2.729,9.948-6.425,14.102-10.519
				c4.094-3.98,7.619-8.416,11.485-12.566c2.389-2.559,4.89-5.061,7.961-6.938c2.443-1.479,5.062-2.502,8.073-2.047
				c2.389,0.398,4.095,1.764,5.743,3.241c3.923,3.525,7.052,7.62,10.007,11.771c4.036,5.686,8.133,11.372,12.795,16.659
				c2.673,3.015,5.63,5.743,9.269,7.733c6.255,3.354,12.737,3.639,19.333,0.91c1.023-0.455,1.023-0.455,1.137,0.567
				c0.514,4.379,0.569,8.813,0.343,13.192c-0.625,11.998-3.695,23.427-9.384,34.288c-4.719,9.041-11.088,17.058-18.139,24.677
				c-4.604,4.947-9.382,9.725-14.441,14.329c-11.94,10.747-25.021,20.188-39.858,27.521c-9.041,4.49-18.48,8.073-28.431,10.519
				c-1.479,0.342-2.844,0.342-4.266-0.17c-2.445-0.91-3.185-3.128-1.706-5.061c0.796-1.081,1.819-2.048,2.843-2.957
				c3.47-3.186,7.394-5.801,11.146-8.644c5.401-4.15,10.519-8.587,15.638-13.021c4.775-4.151,9.153-8.529,12.963-13.419
				c5.688-7.394,9.214-15.523,10.405-24.451c1.422-10.349-0.566-20.242-5.288-29.682c-5.97-11.884-15.238-21.151-27.406-28.032
				c-2.844-1.593-5.742-3.241-8.586-4.833C470.109,100.047,469.825,99.876,469.313,99.535z"/>
		</g>
		<g>
			<path fill="#EBB51B" d="M483.074,18.223c5.629,0,10.233,0.854,14.84,1.934c14.442,3.242,27.578,9.383,39.35,18.195
				c11.314,8.416,20.241,18.821,27.064,31.104c2.16,3.924,3.979,7.903,5.572,12.055c0.797,2.104,1.819,4.037,2.56,6.198
				c0.058,0.227,0.112,0.512,0.229,0.738c0.683,1.649,0.113,2.9-1.022,4.095c-2.787,2.843-6.994,3.24-10.405,0.853
				c-2.218-1.479-3.923-3.469-5.518-5.516c-4.148-5.118-7.789-10.633-11.37-16.149c-3.016-4.605-6.199-9.154-9.951-13.191
				c-2.502-2.729-5.23-5.174-8.528-6.937c-5.63-2.899-11.431-2.957-17.286-0.796c-4.436,1.592-8.074,4.378-11.429,7.62
				c-3.696,3.524-6.824,7.563-10.009,11.485c-3.24,4.037-6.596,7.961-10.521,11.373c-3.411,2.957-7.164,5.459-11.6,6.652
				c-3.98,1.081-6.88,0.171-9.382-3.014c-0.739-0.91-1.309-1.934-1.819-3.014c-1.535-3.412-2.389-6.938-2.786-10.634
				c-1.251-11.485,1.364-22.29,6.255-32.638c2.388-5.004,5.345-9.553,9.382-13.477c2.729-2.672,5.801-4.891,9.554-5.971
				C478.696,18.451,481.312,18.167,483.074,18.223z"/>
		</g>
	</g>
	<g>
		
			<image overflow="visible" opacity="0.75" width="523" height="105" xlink:href="CC034475.png"  transform="matrix(1 0 0 1 226.5002 216)">
		</image>
		<g>
			<g>
				<path fill="#254071" d="M242.597,304.307h-9.612c-1.933,0-2.896-1.083-2.896-3.251v-44.944c0-3.329,1.312-5.574,3.937-6.735
					c8.107-3.329,17.566-4.994,28.375-4.994c7.414,0,12.2,1.743,14.363,5.226c4.402-3.483,11.852-5.226,22.352-5.226
					c5.02,0,8.764,0.6,11.234,1.798c2.472,1.201,4.172,3.041,5.098,5.517c0.695,2.014,1.042,5.808,1.042,11.382v37.976
					c0,2.168-0.925,3.251-2.78,3.251h-9.728c-1.929,0-2.896-1.083-2.896-3.251v-34.493c0-2.632-0.192-4.527-0.579-5.688
					c-0.694-2.249-3.127-3.37-7.296-3.37c-2.934,0-5.909,0.502-8.917,1.511c-0.929,0.309-1.777,0.851-2.549,1.625
					c-0.463,0.464-0.694,1.199-0.694,2.207c0,0.232,0.019,0.832,0.057,1.799c0.039,0.969,0.059,1.571,0.059,1.801v34.608
					c0,2.168-0.967,3.251-2.896,3.251h-9.731c-1.928,0-2.893-1.083-2.893-3.251v-34.725c0-2.478-0.192-4.296-0.581-5.456
					c-0.463-1.241-1.215-2.111-2.257-2.614c-1.041-0.505-2.684-0.756-4.922-0.756c-3.243,0-6.252,0.464-9.035,1.394
					c-1.465,0.619-2.356,1.199-2.664,1.741c-0.383,0.464-0.577,1.743-0.577,3.832v36.583
					C245.611,303.224,244.606,304.307,242.597,304.307"/>
				<path fill="#254071" d="M341.503,234.45c-1.391,1.358-3.516,2.035-6.374,2.035c-5.481,0-8.221-2.867-8.221-8.594
					c0-5.808,2.74-8.712,8.221-8.712c2.783,0,4.885,0.639,6.315,1.917c1.427,1.276,2.142,3.501,2.142,6.675
					C343.586,230.872,342.891,233.096,341.503,234.45 M339.996,304.307h-9.613c-1.931,0-2.895-1.083-2.895-3.251v-51.911
					c0-2.249,1.005-3.369,3.011-3.369h9.613c1.931,0,2.896,1.083,2.896,3.25v52.03C343.008,303.224,342.004,304.307,339.996,304.307
					"/>
				<path fill="#94BC42" d="M369.457,304.308h-9.613c-2.008,0-3.01-1.16-3.01-3.483v-65.153c0-4.801,0.964-8.244,2.896-10.335
					c1.929-2.091,5.213-3.136,9.844-3.136h10.306c11.197,0,19.07,0.968,23.628,2.901c7.799,3.175,11.698,10.376,11.698,21.604
					c0,12.307-5.174,20.013-15.52,23.113c-4.634,1.389-10.965,2.086-18.996,2.086h-7.875v28.92
					C372.815,303.147,371.694,304.308,369.457,304.308 M381.386,259.248c5.019,0,8.799-0.464,11.35-1.395
					c4.016-1.548,6.023-4.954,6.023-10.22c0-5.807-1.931-9.445-5.792-10.918c-2.239-0.772-6.179-1.16-11.813-1.16h-4.981
					c-2.238,0-3.358,1.277-3.358,3.832v19.861H381.386z"/>
				<path fill="#94BC42" d="M493.453,304.307h-9.616c-1.929,0-2.893-1.083-2.893-3.251v-43.897c0-1.937,0.248-3.426,0.749-4.473
					c0.504-1.044,1.41-2.033,2.722-2.961c2.01-1.318,5.31-2.536,9.901-3.661c4.6-1.122,8.938-1.682,13.032-1.682
					c3.782,0,6.37,0.231,7.759,0.696c1.391,0.543,2.088,1.55,2.088,3.02c0,3.408-0.234,6.042-0.697,7.898
					c-0.309,1.318-1.275,1.973-2.896,1.973c-0.54,0-1.656-0.039-3.354-0.113c-1.704-0.081-2.859-0.117-3.48-0.117
					c-3.472,0-6.216,0.503-8.221,1.509c-0.85,0.463-1.389,0.967-1.621,1.508c-0.312,0.542-0.461,1.548-0.461,3.02v37.28
					C496.465,303.224,495.458,304.307,493.453,304.307"/>
				<path fill="#94BC42" d="M570.004,299.778c-1.08,1.237-2.43,2.131-4.053,2.673c-2.393,0.854-5.89,1.606-10.483,2.265
					c-4.592,0.657-8.86,0.986-12.795,0.986c-8.419,0-14.188-1.686-17.316-5.053c-3.125-3.367-4.69-7.993-4.69-13.878
					c0-6.658,2.161-11.418,6.486-14.283c3.63-2.478,9.805-3.719,18.533-3.719c4.169,0,7.604,0.156,10.304,0.465v-2.9
					c0-2.481-0.189-4.26-0.576-5.344c-0.929-2.246-4.209-3.368-9.845-3.368c-3.631,0-7.492,0.349-11.581,1.044
					c-3.014,0.464-4.671,0.697-4.982,0.697c-1.312,0-2.163-0.734-2.548-2.205c-0.771-3.1-1.16-5.343-1.16-6.739
					c0-1.779,0.852-2.942,2.549-3.483c5.64-1.783,12.276-2.672,19.923-2.672c9.728,0,16.211,1.586,19.455,4.76
					c2.78,2.71,4.171,7.859,4.171,15.449v29.73C571.395,296.759,570.931,298.619,570.004,299.778 M547.65,279.338
					c-5.092,0-8.411,0.582-9.957,1.742c-1.467,0.93-2.203,2.711-2.203,5.345c0,2.475,0.657,4.354,1.969,5.632
					c1.313,1.277,3.67,1.915,7.067,1.915c4.168,0,7.292-0.465,9.381-1.393c0.926-0.387,1.507-1.009,1.736-1.859
					c0.231-0.696,0.347-2.014,0.347-3.948v-6.969C552.901,279.495,550.121,279.338,547.65,279.338"/>
				<path fill="#94BC42" d="M467.47,299.778c-1.081,1.237-2.434,2.131-4.056,2.673c-2.392,0.854-5.888,1.606-10.481,2.265
					c-4.595,0.657-8.86,0.986-12.797,0.986c-8.416,0-14.185-1.686-17.314-5.053c-3.125-3.367-4.69-7.993-4.69-13.878
					c0-6.658,2.162-11.418,6.485-14.283c3.628-2.478,9.806-3.719,18.531-3.719c4.17,0,7.604,0.156,10.307,0.465v-2.9
					c0-2.481-0.193-4.26-0.579-5.344c-0.928-2.246-4.207-3.368-9.844-3.368c-3.629,0-7.49,0.349-11.581,1.044
					c-3.014,0.464-4.672,0.697-4.982,0.697c-1.312,0-2.161-0.734-2.549-2.205c-0.769-3.1-1.158-5.343-1.158-6.739
					c0-1.779,0.852-2.942,2.549-3.483c5.638-1.783,12.277-2.672,19.922-2.672c9.729,0,16.212,1.586,19.456,4.76
					c2.781,2.71,4.169,7.859,4.169,15.449v29.73C468.858,296.759,468.395,298.619,467.47,299.778 M445.115,279.338
					c-5.095,0-8.415,0.582-9.958,1.742c-1.468,0.93-2.204,2.711-2.204,5.345c0,2.475,0.658,4.354,1.97,5.632
					c1.314,1.277,3.667,1.915,7.066,1.915c4.169,0,7.294-0.465,9.379-1.393c0.928-0.387,1.507-1.009,1.739-1.859
					c0.231-0.696,0.347-2.014,0.347-3.948v-6.969C450.366,279.495,447.586,279.338,445.115,279.338"/>
				<path fill="#94BC42" d="M594.492,304.307h-9.609c-1.935,0-2.899-1.083-2.899-3.251v-44.944c0-3.329,1.312-5.574,3.938-6.735
					c8.108-3.329,17.567-4.994,28.374-4.994c7.415,0,12.201,1.743,14.361,5.226c4.404-3.483,11.854-5.226,22.354-5.226
					c5.018,0,8.763,0.6,11.237,1.798c2.47,1.201,4.168,3.041,5.094,5.517c0.695,2.014,1.041,5.808,1.041,11.382v37.976
					c0,2.168-0.925,3.251-2.78,3.251h-9.726c-1.934,0-2.896-1.083-2.896-3.251v-34.493c0-2.632-0.193-4.527-0.579-5.688
					c-0.696-2.249-3.128-3.37-7.296-3.37c-2.936,0-5.909,0.502-8.918,1.511c-0.929,0.309-1.777,0.851-2.548,1.625
					c-0.463,0.464-0.695,1.199-0.695,2.207c0,0.232,0.02,0.832,0.059,1.799c0.037,0.969,0.058,1.571,0.058,1.801v34.608
					c0,2.168-0.964,3.251-2.896,3.251h-9.728c-1.933,0-2.895-1.083-2.895-3.251v-34.725c0-2.478-0.196-4.296-0.582-5.456
					c-0.461-1.241-1.215-2.111-2.257-2.614c-1.042-0.505-2.684-0.756-4.922-0.756c-3.243,0-6.255,0.464-9.032,1.394
					c-1.471,0.619-2.358,1.199-2.667,1.741c-0.387,0.464-0.577,1.743-0.577,3.832v36.583
					C597.505,303.224,596.5,304.307,594.492,304.307"/>
				<path fill="#94BC42" d="M727.617,299.084c-4.322,4.409-11.463,6.617-21.427,6.617c-9.652,0-16.599-2.166-20.848-6.502
					c-4.243-4.336-6.368-12.428-6.368-24.274c0-6.114,0.677-11.247,2.026-15.386c1.352-4.143,3.361-7.298,6.025-9.466
					c2.661-2.169,5.557-3.677,8.685-4.528c3.127-0.854,6.889-1.279,11.291-1.279c4.941,0,8.938,0.37,11.987,1.105
					c3.052,0.735,5.811,2.167,8.281,4.295c2.471,2.13,4.229,5.208,5.271,9.233c1.044,4.029,1.563,9.252,1.563,15.679
					C734.104,286.501,731.941,294.67,727.617,299.084 M716.212,260.874c-1.585-2.324-4.731-3.484-9.442-3.484
					c-4.324,0-7.412,1.199-9.267,3.6c-1.851,2.398-2.776,7.006-2.776,13.819c0,7.28,0.828,12.098,2.488,14.46
					s4.73,3.542,9.207,3.542c4.556,0,7.725-1.142,9.5-3.426c1.773-2.281,2.661-7.025,2.661-14.225
					C718.583,267.958,717.793,263.194,716.212,260.874"/>
			</g>
		</g>
	</g>
	<g>
		
			<image overflow="visible" opacity="0.75" width="413" height="24" xlink:href="CC034477.png"  transform="matrix(1 0 0 1 275.5002 317)">
		</image>
		<g>
			<g>
				<g>
					<path fill="#7C7C7B" d="M285.59,328.918c0.135,0,0.213,0.075,0.213,0.206v1.453c0,0.131-0.078,0.205-0.213,0.205h-5.391v3.876
						h6.903c0.137,0,0.214,0.075,0.214,0.205v1.473c0,0.13-0.078,0.204-0.214,0.204h-8.88c-0.136,0-0.213-0.074-0.213-0.204V323.72
						c0-0.131,0.078-0.205,0.213-0.205h8.88c0.155,0,0.233,0.093,0.194,0.225l-0.427,1.49c-0.039,0.111-0.116,0.167-0.251,0.167
						h-6.419v3.521H285.59z"/>
				</g>
				<g>
					<path fill="#7C7C7B" d="M293.365,330.484c-2.384-0.857-3.238-1.826-3.238-3.634c0-2.236,1.784-3.522,4.577-3.522
						c1.065,0,2.074,0.168,3.024,0.467l1.125,0.354c0.135,0.055,0.194,0.148,0.135,0.261l-0.523,1.416
						c-0.058,0.111-0.155,0.168-0.271,0.13l-1.028-0.315c-0.814-0.243-1.59-0.392-2.462-0.392c-1.396,0-2.347,0.633-2.347,1.603
						c0,0.764,0.485,1.304,1.881,1.808l2.152,0.764c2.27,0.819,3.297,1.733,3.297,3.597c0,2.403-1.862,3.727-4.867,3.727
						c-1.319,0-2.385-0.187-3.742-0.634l-1.009-0.316c-0.136-0.056-0.194-0.148-0.136-0.262l0.504-1.434
						c0.058-0.111,0.155-0.168,0.271-0.111l1.066,0.335c1.028,0.316,1.939,0.483,3.044,0.483c1.436,0,2.638-0.521,2.638-1.788
						c0-0.82-0.834-1.36-1.92-1.752L293.365,330.484z"/>
				</g>
				<g>
					<path fill="#7C7C7B" d="M312.678,325.191c0,0.13-0.078,0.205-0.213,0.205h-4.13v10.939c0,0.13-0.078,0.204-0.213,0.204h-1.784
						c-0.135,0-0.213-0.074-0.213-0.204v-10.939h-4.111c-0.136,0-0.213-0.075-0.213-0.205v-1.472c0-0.131,0.078-0.205,0.213-0.205
						h10.452c0.136,0,0.213,0.074,0.213,0.205V325.191z"/>
				</g>
				<g>
					<path fill="#7C7C7B" d="M316.149,334.043l-0.95,2.33c-0.039,0.111-0.117,0.167-0.233,0.167h-1.862
						c-0.174,0-0.232-0.092-0.174-0.242l3.335-8.18c0.582-1.491,1.105-2.964,1.493-4.418c0.02-0.13,0.097-0.186,0.233-0.186h2.384
						c0.136,0,0.214,0.056,0.233,0.167c0.407,1.473,0.931,2.945,1.513,4.437l3.334,8.18c0.059,0.15,0,0.242-0.174,0.242h-1.862
						c-0.116,0-0.193-0.056-0.232-0.167l-0.95-2.33H316.149z M321.482,332.161l-1.027-2.44c-0.447-1.156-0.912-2.517-1.106-3.448
						c-0.058-0.205-0.271-0.205-0.31,0c-0.194,0.932-0.659,2.273-1.125,3.448l-1.008,2.44H321.482z"/>
				</g>
				<g>
					<path fill="#7C7C7B" d="M340.854,328.918c0.135,0,0.213,0.075,0.213,0.206v1.453c0,0.131-0.078,0.205-0.213,0.205h-5.392v3.876
						h6.903c0.137,0,0.214,0.075,0.214,0.205v1.473c0,0.13-0.077,0.204-0.214,0.204h-8.88c-0.136,0-0.214-0.074-0.214-0.204V323.72
						c0-0.131,0.078-0.205,0.214-0.205h8.88c0.156,0,0.233,0.093,0.194,0.225l-0.427,1.49c-0.039,0.111-0.116,0.167-0.251,0.167
						h-6.419v3.521H340.854z"/>
				</g>
				<g>
					<path fill="#7C7C7B" d="M348.629,330.484c-2.384-0.857-3.238-1.826-3.238-3.634c0-2.236,1.784-3.522,4.576-3.522
						c1.066,0,2.075,0.168,3.025,0.467l1.125,0.354c0.135,0.055,0.194,0.148,0.135,0.261l-0.524,1.416
						c-0.058,0.111-0.155,0.168-0.271,0.13l-1.028-0.315c-0.814-0.243-1.59-0.392-2.463-0.392c-1.396,0-2.347,0.633-2.347,1.603
						c0,0.764,0.485,1.304,1.881,1.808l2.152,0.764c2.269,0.819,3.297,1.733,3.297,3.597c0,2.403-1.861,3.727-4.867,3.727
						c-1.319,0-2.385-0.187-3.742-0.634l-1.009-0.316c-0.136-0.056-0.194-0.148-0.136-0.262l0.504-1.434
						c0.058-0.111,0.155-0.168,0.271-0.111l1.066,0.335c1.028,0.316,1.94,0.483,3.044,0.483c1.436,0,2.637-0.521,2.637-1.788
						c0-0.82-0.833-1.36-1.919-1.752L348.629,330.484z"/>
				</g>
				<g>
					<path fill="#7C7C7B" d="M371.297,334.658c0.135,0,0.212,0.075,0.212,0.205v1.473c0,0.13-0.077,0.204-0.212,0.204h-8.125
						c-0.136,0-0.212-0.074-0.212-0.204V323.72c0-0.131,0.077-0.205,0.212-0.205h1.765c0.136,0,0.213,0.074,0.213,0.205v10.938
						H371.297z"/>
					<path fill="#7C7C7B" d="M377.23,334.043l-0.95,2.33c-0.039,0.111-0.116,0.167-0.232,0.167h-1.862
						c-0.175,0-0.233-0.092-0.175-0.242l3.335-8.18c0.582-1.491,1.105-2.964,1.494-4.418c0.019-0.13,0.096-0.186,0.232-0.186h2.385
						c0.136,0,0.213,0.056,0.233,0.167c0.407,1.473,0.931,2.945,1.513,4.437l3.335,8.18c0.058,0.15,0,0.242-0.174,0.242h-1.862
						c-0.117,0-0.194-0.056-0.233-0.167l-0.95-2.33H377.23z M382.563,332.161l-1.027-2.44c-0.446-1.156-0.912-2.517-1.106-3.448
						c-0.058-0.205-0.272-0.205-0.31,0c-0.194,0.932-0.659,2.273-1.125,3.448l-1.008,2.44H382.563z"/>
				</g>
				<g>
					<path fill="#7C7C7B" d="M396.563,336.336c0,0.13-0.078,0.204-0.214,0.204h-1.764c-0.136,0-0.213-0.074-0.213-0.204V323.72
						c0-0.131,0.078-0.205,0.213-0.205h1.764c0.136,0,0.214,0.074,0.214,0.205V336.336z"/>
				</g>
				<g>
					<path fill="#7C7C7B" d="M411.241,336.336c0,0.13-0.077,0.204-0.213,0.204h-2.327c-0.117,0-0.194-0.056-0.252-0.148
						c-0.272-0.634-0.659-1.343-1.008-1.919l-4.15-6.579c-0.251-0.428-0.484-0.857-0.678-1.249c-0.117-0.204-0.311-0.13-0.272,0.076
						c0.116,0.838,0.175,1.583,0.175,2.589v7.026c0,0.13-0.078,0.204-0.214,0.204h-1.784c-0.135,0-0.213-0.074-0.213-0.204V323.72
						c0-0.131,0.078-0.205,0.213-0.205h2.327c0.116,0,0.195,0.056,0.252,0.148c0.291,0.634,0.679,1.343,1.027,1.92l4.149,6.578
						c0.252,0.447,0.486,0.876,0.679,1.249c0.097,0.241,0.291,0.148,0.251-0.074c-0.135-0.821-0.154-1.566-0.154-2.554v-7.063
						c0-0.131,0.077-0.205,0.213-0.205h1.764c0.136,0,0.213,0.074,0.213,0.205V336.336z"/>
					<path fill="#7C7C7B" d="M423.148,331.919c-0.583,1.491-1.066,2.981-1.455,4.454c-0.02,0.111-0.097,0.167-0.232,0.167h-2.269
						c-0.136,0-0.213-0.056-0.233-0.167c-0.408-1.454-0.892-2.963-1.474-4.454l-3.335-8.161c-0.058-0.15,0-0.243,0.175-0.243h1.861
						c0.116,0,0.194,0.056,0.232,0.167l2.753,6.673c0.447,1.155,0.815,2.422,0.989,3.315c0.04,0.206,0.292,0.206,0.31,0
						c0.175-0.894,0.543-2.16,1.009-3.315l2.734-6.673c0.04-0.111,0.117-0.167,0.233-0.167h1.881c0.175,0,0.233,0.093,0.175,0.243
						L423.148,331.919z"/>
				</g>
				<g>
					<path fill="#7C7C7B" d="M436.973,328.918c0.136,0,0.213,0.075,0.213,0.206v1.453c0,0.131-0.077,0.205-0.213,0.205h-5.391v3.876
						h6.903c0.137,0,0.214,0.075,0.214,0.205v1.473c0,0.13-0.077,0.204-0.214,0.204h-8.88c-0.137,0-0.213-0.074-0.213-0.204V323.72
						c0-0.131,0.077-0.205,0.213-0.205h8.88c0.156,0,0.233,0.093,0.194,0.225l-0.427,1.49c-0.039,0.111-0.116,0.167-0.252,0.167
						h-6.418v3.521H436.973z"/>
				</g>
				<g>
					<path fill="#7C7C7B" d="M447.367,323.515c2.831,0,4.499,1.417,4.499,3.764c0,1.696-1.086,2.833-2.579,3.354
						c-0.252,0.112-0.252,0.205-0.02,0.337c0.911,0.464,1.455,1.304,1.862,2.16l1.376,3.168c0.058,0.15-0.02,0.242-0.174,0.242
						h-1.881c-0.116,0-0.193-0.056-0.252-0.148l-1.047-2.403c-0.717-1.678-1.609-2.535-3.645-2.535h-1.396v4.883
						c0,0.13-0.078,0.204-0.213,0.204h-1.765c-0.136,0-0.213-0.074-0.213-0.204V323.72c0-0.131,0.078-0.205,0.213-0.205H447.367z
						 M446.572,329.59c1.997,0,3.064-0.765,3.064-2.181c0-1.229-0.873-2.013-2.269-2.013h-3.257v4.193H446.572z"/>
				</g>
				<g>
					<path fill="#7C7C7B" d="M458.653,330.484c-2.385-0.857-3.238-1.826-3.238-3.634c0-2.236,1.784-3.522,4.576-3.522
						c1.066,0,2.075,0.168,3.024,0.467l1.125,0.354c0.136,0.055,0.195,0.148,0.136,0.261l-0.524,1.416
						c-0.058,0.111-0.155,0.168-0.271,0.13l-1.027-0.315c-0.814-0.243-1.59-0.392-2.463-0.392c-1.396,0-2.346,0.633-2.346,1.603
						c0,0.764,0.485,1.304,1.881,1.808l2.153,0.764c2.268,0.819,3.295,1.733,3.295,3.597c0,2.403-1.861,3.727-4.867,3.727
						c-1.318,0-2.385-0.187-3.742-0.634l-1.008-0.316c-0.136-0.056-0.194-0.148-0.136-0.262l0.505-1.434
						c0.058-0.111,0.155-0.168,0.271-0.111l1.067,0.335c1.028,0.316,1.939,0.483,3.044,0.483c1.436,0,2.638-0.521,2.638-1.788
						c0-0.82-0.834-1.36-1.92-1.752L458.653,330.484z"/>
				</g>
				<g>
					<path fill="#7C7C7B" d="M470.365,336.336c0,0.13-0.077,0.204-0.213,0.204h-1.766c-0.135,0-0.212-0.074-0.212-0.204V323.72
						c0-0.131,0.077-0.205,0.212-0.205h1.766c0.136,0,0.213,0.074,0.213,0.205V336.336z"/>
				</g>
				<g>
					<path fill="#7C7C7B" d="M485.412,330.019c0,4.137-2.249,6.727-5.895,6.727c-3.666,0-5.895-2.59-5.895-6.727
						c0-4.119,2.229-6.69,5.895-6.69C483.163,323.328,485.412,325.899,485.412,330.019z M475.852,330.019
						c0,2.981,1.358,4.788,3.666,4.788c2.288,0,3.646-1.807,3.646-4.788c0-3.001-1.358-4.771-3.646-4.771
						C477.21,325.248,475.852,327.018,475.852,330.019z M482.328,319.751c0.193,0,0.252,0.13,0.116,0.261l-2.016,1.956
						c-0.078,0.075-0.155,0.112-0.272,0.112h-1.686c-0.175,0-0.233-0.112-0.137-0.243l1.376-1.956
						c0.077-0.093,0.156-0.13,0.271-0.13H482.328z"/>
				</g>
				<g>
					<path fill="#7C7C7B" d="M499.567,336.336c0,0.13-0.078,0.204-0.213,0.204h-2.327c-0.115,0-0.194-0.056-0.251-0.148
						c-0.272-0.634-0.661-1.343-1.01-1.919l-4.149-6.579c-0.25-0.428-0.484-0.857-0.678-1.249c-0.116-0.204-0.311-0.13-0.272,0.076
						c0.116,0.838,0.175,1.583,0.175,2.589v7.026c0,0.13-0.077,0.204-0.213,0.204h-1.783c-0.136,0-0.215-0.074-0.215-0.204V323.72
						c0-0.131,0.079-0.205,0.215-0.205h2.327c0.115,0,0.194,0.056,0.251,0.148c0.291,0.634,0.678,1.343,1.028,1.92l4.149,6.578
						c0.253,0.447,0.484,0.876,0.678,1.249c0.099,0.241,0.293,0.148,0.254-0.074c-0.137-0.821-0.155-1.566-0.155-2.554v-7.063
						c0-0.131,0.078-0.205,0.212-0.205h1.765c0.135,0,0.213,0.074,0.213,0.205V336.336z"/>
				</g>
				<g>
					<path fill="#7C7C7B" d="M512.868,323.515c3.686,0,5.915,2.516,5.915,6.522c0,3.951-2.269,6.503-5.915,6.503h-4.537
						c-0.136,0-0.213-0.074-0.213-0.204V323.72c0-0.131,0.077-0.205,0.213-0.205H512.868z M510.31,334.658h2.559
						c2.289,0,3.666-1.695,3.666-4.621c0-2.944-1.377-4.641-3.666-4.641h-2.559V334.658z"/>
					<path fill="#7C7C7B" d="M529.604,328.918c0.136,0,0.213,0.075,0.213,0.206v1.453c0,0.131-0.077,0.205-0.213,0.205h-5.392v3.876
						h6.904c0.136,0,0.212,0.075,0.212,0.205v1.473c0,0.13-0.076,0.204-0.212,0.204h-8.881c-0.136,0-0.215-0.074-0.215-0.204V323.72
						c0-0.131,0.079-0.205,0.215-0.205h8.881c0.154,0,0.232,0.093,0.193,0.225l-0.426,1.49c-0.038,0.111-0.117,0.167-0.254,0.167
						h-6.418v3.521H529.604z"/>
					<path fill="#7C7C7B" d="M550.273,336.336c0,0.13-0.077,0.204-0.213,0.204h-2.327c-0.116,0-0.193-0.056-0.251-0.148
						c-0.273-0.634-0.66-1.343-1.009-1.919l-4.15-6.579c-0.252-0.428-0.485-0.857-0.678-1.249c-0.116-0.204-0.31-0.13-0.271,0.076
						c0.115,0.838,0.173,1.583,0.173,2.589v7.026c0,0.13-0.077,0.204-0.212,0.204h-1.786c-0.135,0-0.213-0.074-0.213-0.204V323.72
						c0-0.131,0.078-0.205,0.213-0.205h2.327c0.117,0,0.194,0.056,0.253,0.148c0.29,0.634,0.68,1.343,1.027,1.92l4.149,6.578
						c0.253,0.447,0.485,0.876,0.678,1.249c0.099,0.241,0.292,0.148,0.253-0.074c-0.135-0.821-0.154-1.566-0.154-2.554v-7.063
						c0-0.131,0.078-0.205,0.212-0.205h1.766c0.136,0,0.213,0.074,0.213,0.205V336.336z"/>
				</g>
				<g>
					<path fill="#7C7C7B" d="M564.313,331.304c0,3.448-1.92,5.441-5.216,5.441s-5.217-1.993-5.217-5.441v-7.584
						c0-0.131,0.076-0.205,0.212-0.205h1.767c0.136,0,0.214,0.074,0.214,0.205v7.584c0,2.236,1.104,3.503,3.024,3.503
						c1.899,0,3.005-1.267,3.005-3.503v-7.584c0-0.131,0.078-0.205,0.213-0.205h1.785c0.136,0,0.213,0.074,0.213,0.205V331.304z"/>
				</g>
				<g>
					<path fill="#7C7C7B" d="M575.502,328.918c0.136,0,0.212,0.075,0.212,0.206v1.453c0,0.131-0.076,0.205-0.212,0.205h-5.391v3.876
						h6.902c0.135,0,0.213,0.075,0.213,0.205v1.473c0,0.13-0.078,0.204-0.213,0.204h-8.882c-0.135,0-0.211-0.074-0.211-0.204V323.72
						c0-0.131,0.076-0.205,0.211-0.205h8.882c0.154,0,0.231,0.093,0.194,0.225l-0.428,1.49c-0.038,0.111-0.116,0.167-0.252,0.167
						h-6.417v3.521H575.502z"/>
				</g>
				<g>
					<path fill="#7C7C7B" d="M583.277,330.484c-2.385-0.857-3.237-1.826-3.237-3.634c0-2.236,1.783-3.522,4.576-3.522
						c1.064,0,2.073,0.168,3.024,0.467l1.125,0.354c0.136,0.055,0.193,0.148,0.136,0.261l-0.523,1.416
						c-0.06,0.111-0.157,0.168-0.272,0.13l-1.028-0.315c-0.813-0.243-1.589-0.392-2.461-0.392c-1.397,0-2.346,0.633-2.346,1.603
						c0,0.764,0.483,1.304,1.88,1.808l2.153,0.764c2.269,0.819,3.294,1.733,3.294,3.597c0,2.403-1.859,3.727-4.864,3.727
						c-1.32,0-2.385-0.187-3.742-0.634l-1.01-0.316c-0.135-0.056-0.193-0.148-0.135-0.262l0.502-1.434
						c0.061-0.111,0.156-0.168,0.271-0.111l1.067,0.335c1.028,0.316,1.939,0.483,3.046,0.483c1.435,0,2.636-0.521,2.636-1.788
						c0-0.82-0.834-1.36-1.92-1.752L583.277,330.484z"/>
				</g>
				<g>
					<path fill="#7C7C7B" d="M602.61,325.191c0,0.13-0.078,0.205-0.214,0.205h-4.128v10.939c0,0.13-0.079,0.204-0.217,0.204h-1.781
						c-0.136,0-0.214-0.074-0.214-0.204v-10.939h-4.11c-0.137,0-0.215-0.075-0.215-0.205v-1.472c0-0.131,0.078-0.205,0.215-0.205
						h10.45c0.136,0,0.214,0.074,0.214,0.205V325.191z"/>
				</g>
				<g>
					<path fill="#7C7C7B" d="M611.084,323.515c2.831,0,4.499,1.417,4.499,3.764c0,1.696-1.087,2.833-2.579,3.354
						c-0.252,0.112-0.252,0.205-0.02,0.337c0.911,0.464,1.454,1.304,1.861,2.16l1.376,3.168c0.06,0.15-0.02,0.242-0.176,0.242
						h-1.879c-0.116,0-0.194-0.056-0.252-0.148l-1.047-2.403c-0.718-1.678-1.61-2.535-3.646-2.535h-1.396v4.883
						c0,0.13-0.077,0.204-0.212,0.204h-1.766c-0.137,0-0.214-0.074-0.214-0.204V323.72c0-0.131,0.077-0.205,0.214-0.205H611.084z
						 M610.289,329.59c1.996,0,3.063-0.765,3.063-2.181c0-1.229-0.873-2.013-2.269-2.013h-3.258v4.193H610.289z"/>
				</g>
				<g>
					<path fill="#7C7C7B" d="M621.846,334.043l-0.95,2.33c-0.04,0.111-0.116,0.167-0.233,0.167h-1.861
						c-0.175,0-0.232-0.092-0.175-0.242l3.335-8.18c0.583-1.491,1.106-2.964,1.493-4.418c0.02-0.13,0.098-0.186,0.233-0.186h2.384
						c0.136,0,0.216,0.056,0.235,0.167c0.405,1.473,0.929,2.945,1.512,4.437l3.334,8.18c0.058,0.15,0,0.242-0.175,0.242h-1.861
						c-0.115,0-0.193-0.056-0.231-0.167l-0.95-2.33H621.846z M627.178,332.161l-1.028-2.44c-0.444-1.156-0.91-2.517-1.104-3.448
						c-0.06-0.205-0.273-0.205-0.312,0c-0.194,0.932-0.658,2.273-1.125,3.448l-1.006,2.44H627.178z"/>
				</g>
				<g>
					<path fill="#7C7C7B" d="M647.094,331.919c-0.583,1.491-1.066,2.981-1.457,4.454c-0.019,0.111-0.097,0.167-0.231,0.167h-2.269
						c-0.136,0-0.213-0.056-0.233-0.167c-0.405-1.454-0.892-2.963-1.473-4.454l-3.337-8.161c-0.058-0.15,0-0.243,0.176-0.243h1.861
						c0.116,0,0.193,0.056,0.232,0.167l2.754,6.673c0.446,1.155,0.814,2.422,0.988,3.315c0.039,0.206,0.291,0.206,0.311,0
						c0.175-0.894,0.544-2.16,1.009-3.315l2.733-6.673c0.039-0.111,0.117-0.167,0.234-0.167h1.88c0.174,0,0.231,0.093,0.174,0.243
						L647.094,331.919z"/>
				</g>
				<g>
					<path fill="#7C7C7B" d="M655.529,336.336c0,0.13-0.078,0.204-0.214,0.204h-1.764c-0.137,0-0.214-0.074-0.214-0.204V323.72
						c0-0.131,0.077-0.205,0.214-0.205h1.764c0.136,0,0.214,0.074,0.214,0.205V336.336z"/>
				</g>
				<g>
					<path fill="#7C7C7B" d="M664.059,323.515c3.684,0,5.914,2.516,5.914,6.522c0,3.951-2.269,6.503-5.914,6.503h-4.537
						c-0.135,0-0.214-0.074-0.214-0.204V323.72c0-0.131,0.079-0.205,0.214-0.205H664.059z M661.499,334.658h2.56
						c2.289,0,3.665-1.695,3.665-4.621c0-2.944-1.376-4.641-3.665-4.641h-2.56V334.658z"/>
				</g>
				<g>
					<path fill="#7C7C7B" d="M675.15,334.043l-0.948,2.33c-0.039,0.111-0.116,0.167-0.234,0.167h-1.86
						c-0.174,0-0.231-0.092-0.174-0.242l3.334-8.18c0.583-1.491,1.105-2.964,1.495-4.418c0.018-0.13,0.096-0.186,0.231-0.186h2.385
						c0.136,0,0.213,0.056,0.232,0.167c0.407,1.473,0.931,2.945,1.512,4.437l3.336,8.18c0.059,0.15,0,0.242-0.174,0.242h-1.863
						c-0.115,0-0.193-0.056-0.231-0.167l-0.951-2.33H675.15z M680.484,332.161l-1.027-2.44c-0.445-1.156-0.912-2.517-1.106-3.448
						c-0.058-0.205-0.271-0.205-0.31,0c-0.193,0.932-0.659,2.273-1.125,3.448l-1.008,2.44H680.484z"/>
				</g>
			</g>
		</g>
	</g>
</g>
<g id="hombreJoven" onmouseover="document.getElementById('hombreJoven').style.cursor = 'pointer';document.getElementById(&quot;textoHombreJoven&quot;).style.display = 'block';document.getElementById(&quot;sombraTierra&quot;).style.display = 'block';" onmouseout="document.getElementById(&quot;textoHombreJoven&quot;).style.display = 'none';document.getElementById(&quot;sombraTierra&quot;).style.display = 'none';">
	<g id="Capa_2">
		
			<image overflow="visible" enable-background="new    " width="143" height="282" xlink:href="CC034474.png"  transform="matrix(0.5638 0 0 0.5638 427.2219 397.1182)">
		</image>
	</g>
</g>
<g id="textoHombreJoven" display="none">
	<rect x="506" y="418" display="inline" fill="#5A5B5B" width="143" height="132"/>
	<rect x="513.92" y="434" display="inline" fill="none" width="128.678" height="108.839"/>
	
		<text transform="matrix(1 0 0 1 513.9202 443.7305)" display="inline" fill="#F7F8F9" font-family="'TimesNewRomanPSMT'" font-size="14">Texto desciptivo</text>
	
		<text transform="matrix(1 0 0 1 513.9202 460.5293)" display="inline" fill="#F7F8F9" font-family="'TimesNewRomanPSMT'" font-size="14">xxxxxxxxxxxxxxxxxx</text>
	
		<text transform="matrix(1 0 0 1 513.9202 477.3301)" display="inline" fill="#F7F8F9" font-family="'TimesNewRomanPSMT'" font-size="14">xxxxxxxxxxxxxxxxxx</text>
	
		<text transform="matrix(1 0 0 1 513.9202 494.1299)" display="inline" fill="#F7F8F9" font-family="'TimesNewRomanPSMT'" font-size="14">xxxxxxxxxxxxxxxxxx</text>
	
		<text transform="matrix(1 0 0 1 513.9202 510.9297)" display="inline" fill="#F7F8F9" font-family="'TimesNewRomanPSMT'" font-size="14">xxxxxxxxxxxxxxxxxx</text>
	
		<text transform="matrix(1 0 0 1 513.9202 527.7305)" display="inline" fill="#F7F8F9" font-family="'TimesNewRomanPSMT'" font-size="14">xxxxxxxxxxxxxxxx</text>
</g>
<g id="hombreCampo" onmouseover="document.getElementById('hombreCampo').style.cursor = 'pointer';document.getElementById(&quot;textoCampo&quot;).style.display = 'block';document.getElementById(&quot;sombraMontana&quot;).style.display = 'block';" onmouseout="document.getElementById(&quot;textoCampo&quot;).style.display = 'none';document.getElementById(&quot;sombraMontana&quot;).style.display = 'none';">
	<g id="Capa_1_1_">
		
			<image overflow="visible" enable-background="new    " width="233" height="291" xlink:href="CC03447C.png"  transform="matrix(0.5425 0 0 0.5439 701.7141 397.8193)">
		</image>
	</g>
</g>
<g id="textoCampo" display="none">
	<rect x="817" y="418" display="inline" fill="#5A5B5B" width="143" height="132"/>
	<rect x="824.92" y="434" display="inline" fill="none" width="128.678" height="108.839"/>
	
		<text transform="matrix(1 0 0 1 824.9202 443.7305)" display="inline" fill="#F7F8F9" font-family="'TimesNewRomanPSMT'" font-size="14">Texto desciptivo</text>
	
		<text transform="matrix(1 0 0 1 824.9202 460.5293)" display="inline" fill="#F7F8F9" font-family="'TimesNewRomanPSMT'" font-size="14">xxxxxxxxxxxxxxxxxx</text>
	
		<text transform="matrix(1 0 0 1 824.9202 477.3301)" display="inline" fill="#F7F8F9" font-family="'TimesNewRomanPSMT'" font-size="14">xxxxxxxxxxxxxxxxxx</text>
	
		<text transform="matrix(1 0 0 1 824.9202 494.1299)" display="inline" fill="#F7F8F9" font-family="'TimesNewRomanPSMT'" font-size="14">xxxxxxxxxxxxxxxxxx</text>
	
		<text transform="matrix(1 0 0 1 824.9202 510.9297)" display="inline" fill="#F7F8F9" font-family="'TimesNewRomanPSMT'" font-size="14">xxxxxxxxxxxxxxxxxx</text>
	
		<text transform="matrix(1 0 0 1 824.9202 527.7305)" display="inline" fill="#F7F8F9" font-family="'TimesNewRomanPSMT'" font-size="14">xxxxxxxxxxxxxxxx</text>
</g>
<g id="mujerJoven" onclick="parent.window.location = '../../recorridoAgua'" onmouseover="document.getElementById('mujerJoven').style.cursor = 'pointer';document.getElementById('textoMujer').style.display = 'block';document.getElementById('sombraAgua').style.display = 'block';" onmouseout="document.getElementById(&quot;textoMujer&quot;).style.display = 'none';document.getElementById(&quot;sombraAgua&quot;).style.display = 'none';">
	<g id="Capa_3">
		
			<image overflow="visible" enable-background="new    " width="164" height="298" xlink:href="CC03447D.png"  transform="matrix(0.5324 0 0 0.5336 106.4973 397.1201)">
		</image>
	</g>
</g>
<g id="textoMujer" display="none">
	<rect x="207" y="418" display="inline" fill="#5A5B5B" width="143" height="132"/>
	<rect x="214.92" y="434" display="inline" fill="none" width="128.677" height="108.839"/>
	
		<text transform="matrix(1 0 0 1 214.9202 443.7305)" display="inline" fill="#F7F8F9" font-family="'TimesNewRomanPSMT'" font-size="14">Texto desciptivo</text>
	
		<text transform="matrix(1 0 0 1 214.9202 460.5293)" display="inline" fill="#F7F8F9" font-family="'TimesNewRomanPSMT'" font-size="14">xxxxxxxxxxxxxxxxxx</text>
	
		<text transform="matrix(1 0 0 1 214.9202 477.3301)" display="inline" fill="#F7F8F9" font-family="'TimesNewRomanPSMT'" font-size="14">xxxxxxxxxxxxxxxxxx</text>
	
		<text transform="matrix(1 0 0 1 214.9202 494.1299)" display="inline" fill="#F7F8F9" font-family="'TimesNewRomanPSMT'" font-size="14">xxxxxxxxxxxxxxxxxx</text>
	
		<text transform="matrix(1 0 0 1 214.9202 510.9297)" display="inline" fill="#F7F8F9" font-family="'TimesNewRomanPSMT'" font-size="14">xxxxxxxxxxxxxxxxxx</text>
	
		<text transform="matrix(1 0 0 1 214.9202 527.7305)" display="inline" fill="#F7F8F9" font-family="'TimesNewRomanPSMT'" font-size="14">xxxxxxxxxxxxxxxx</text>
</g>
</svg>
