<?xml version="1.0" encoding="utf-8"?>
<!-- Generator: Adobe Illustrator 16.0.3, SVG Export Plug-In . SVG Version: 6.00 Build 0)  -->
<!DOCTYPE svg PUBLIC "-//W3C//DTD SVG 1.1//EN" "http://www.w3.org/Graphics/SVG/1.1/DTD/svg11.dtd">
<svg version="1.1" id="Layer_1" xmlns="http://www.w3.org/2000/svg" xmlns:xlink="http://www.w3.org/1999/xlink" x="0px" y="0px"
	 width="587.971px" height="556.472px" viewBox="216.235 168.548 587.971 556.472"
	 enable-background="new 216.235 168.548 587.971 556.472" xml:space="preserve">
<g id="union">
	<path fill="#284272" d="M400.346,387.967l220.376-4.323c0,0-11.861,31.371-1.553,47.112c10.31,15.741,61.523,14.521,61.523,14.521
		L558.2,590.273l-28.268-9.312c0,0-3.769-21.395-18.734-22.06c-14.965-0.666-17.293,20.84-17.293,20.84L387.82,439.181
		c0,0,11.64,0.665,20.508-16.85C417.084,405.038,400.346,387.967,400.346,387.967z"/>
</g>
<g id="info" onclick="parent.showInfografia();" onmouseover="document.getElementById(&quot;info&quot;).style.cursor = &quot;pointer&quot;;">
	<g>
		<path fill="#F2F4F6" d="M630.144,483.3c-0.332,1.441-1.33,1.996-2.66,1.996c-1.108-0.111-2.328-0.555-2.217-1.774
			c0.222-1.219,1.219-2.217,2.66-1.995C629.035,481.526,629.922,481.97,630.144,483.3z"/>
		<g>
			<path fill="#284272" d="M509.758,446.607c-74.271-0.332-131.805-60.082-129.255-130.584
				c2.438-67.62,60.747-123.49,133.91-121.162c69.173,2.217,126.927,58.53,124.71,129.698
				C637.017,391.847,580.703,446.386,509.758,446.607z M470.738,328.882c0.222-0.222,0.443-0.443,0.665-0.554
				c0.222-0.222,0.443-0.333,0.665-0.554s0.443-0.443,0.665-0.554c0.111-0.222,0.443-0.554,0.443-0.665
				c-0.332-0.554-0.665-0.111-0.887,0.222c-0.222,0.222-0.443,0.443-0.665,0.554c-0.222,0.222-0.443,0.443-0.554,0.554
				c-0.223,0.222-0.444,0.443-0.666,0.554c-0.222,0.222-0.332,0.333-0.554,0.554s-0.443,0.443-0.665,0.554
				c-0.333,0.333-0.665,0.555-0.998,0.887c-0.222,0.222-0.443,0.443-0.665,0.665s-0.443,0.443-0.665,0.554
				c-0.222,0.222-0.443,0.443-0.665,0.554c-0.222,0.222-0.443,0.333-0.665,0.554s-0.443,0.443-0.555,0.665
				c-1.219,0-1.773-0.998-2.55-1.552c-7.981-5.653-19.177-5.653-27.38,0.111c-7.649,5.321-10.864,14.522-8.093,23.058
				c2.882,8.868,11.529,15.076,21.506,15.076c9.312,0,16.628-3.88,20.84-12.083c4.102-7.981,2.883-15.63-2.882-22.614
				c-0.443-0.554-0.998-0.998-0.665-1.884c0.222,0,0.332-0.111,0.443-0.222c0.222-0.222,0.443-0.444,0.665-0.555
				s0.443-0.443,0.665-0.554c0.222-0.222,0.443-0.443,0.665-0.554c0.222-0.222,0.443-0.333,0.555-0.554
				c0.332-0.333,0.665-0.665,0.997-0.998c0.222-0.222,0.443-0.443,0.665-0.554C470.405,329.325,470.626,329.104,470.738,328.882z
				 M547.448,328.328c0.222,0.222,0.443,0.443,0.555,0.554c0.332,0.333,0.665,0.555,0.997,0.887
				c0.222,0.222,0.444,0.443,0.665,0.554c0.223,0.222,0.444,0.443,0.666,0.554c0.222,0.222,0.443,0.443,0.665,0.554
				c0.222,0.222,0.443,0.443,0.665,0.665c0.332,0.222,0.665,0.554,0.887,0.111c0.11-0.111-0.333-0.443-0.443-0.554
				c-0.222-0.222-0.443-0.333-0.665-0.554s-0.443-0.443-0.665-0.554s-0.443-0.443-0.666-0.554c-0.221-0.111-0.443-0.443-0.665-0.554
				c-0.332-0.333-0.665-0.666-0.997-0.998c-0.222-0.222-0.333-0.333-0.555-0.443c-0.222-0.222-0.443-0.443-0.665-0.554
				s-0.443-0.443-0.665-0.554c-0.222-0.222-0.443-0.443-0.554-0.554c-0.222-0.222-0.444-0.443-0.665-0.554
				c-0.333-0.222-0.555-0.665-0.998-0.222c-0.111,0.111,0.222,0.443,0.332,0.665c0.222,0.222,0.443,0.333,0.665,0.554
				s0.444,0.443,0.665,0.554c0.223,0.111,0.444,0.443,0.666,0.554C547.004,327.884,547.226,328.106,547.448,328.328z
				 M541.905,322.674c0.111-0.111,0.111-0.111,0.223-0.222C542.016,322.563,542.016,322.674,541.905,322.674
				c0,0.111,0,0.222-0.11,0.222C541.794,322.785,541.794,322.785,541.905,322.674z M508.649,349.279
				c-0.665,0.111-1.44,0.111-2.217,0.222c-8.868,0.887-16.738,7.316-19.066,15.741c-2.328,8.314,0.776,16.85,8.203,22.17
				c7.427,5.432,17.958,5.765,26.161,0.998c7.76-4.656,11.64-12.748,10.198-21.506c-1.552-9.644-10.309-16.628-21.727-17.625
				c0-5.21-0.111-10.309-0.111-15.519c13.856-0.666,25.607-5.543,34.364-16.295c8.425-10.42,11.308-22.171,7.649-35.141
				c-7.871-28.157-43.565-40.018-68.729-22.835c-22.835,15.519-24.276,46.558-2.992,63.962c8.203,6.762,17.736,9.977,28.378,10.31
				C508.649,338.97,508.649,344.18,508.649,349.279z M570.394,370.23c12.416-0.111,22.726-9.755,22.726-21.173
				c0-11.64-10.531-21.616-23.058-21.284c-13.081,0.333-22.725,9.644-22.614,21.505C547.559,360.918,557.867,370.341,570.394,370.23
				z M476.724,237.539c1.33,3.104,0.887,4.767-1.885,5.875c-1.33,0.554-2.771,0.776-4.213,0.998c-0.997,0.222-1.33,0.665-1.33,1.663
				c0.111,1.109,0.665,1.441,1.663,1.331c2.66-0.222,5.321,0.443,7.648-2.217c2.439-2.771,3.437-4.212,1.885-7.427
				c-1.552-3.547-3.325-6.983-4.988-10.42c-0.443-0.887-0.887-1.552-1.995-1.552c-3.104-0.111-6.208,0.222-8.979,1.774
				c-2.55,1.552-3.658,3.769-2.882,6.762c0.887,3.215,2.66,5.765,6.097,6.651C471.403,241.862,474.284,240.643,476.724,237.539z
				 M501,219.359c-0.443,0.111-1.885,0.222-3.104,0.554c-0.887,0.333-2.771-0.222-2.218,1.884c0.555,1.774,1.663,1.331,2.883,0.998
				c1.773-0.554,3.658-0.887,5.432,0.222c0.555,0.333,0.998,0.887,0.776,1.552c-0.222,0.554-0.776,0.443-1.331,0.554
				c-1.884,0.443-3.99,0.111-5.875,0.887c-1.885,0.776-3.104,1.995-2.993,4.102c0.111,2.217,1.441,3.547,3.548,3.99
				c2.217,0.555,4.323,0.333,6.318-0.665c0.998-0.554,1.773-1.552,3.104-0.222c0.665,0.665,2.328,0.443,1.996-1.441
				c-0.333-2.106-0.443-4.212-0.665-6.319C508.538,221.022,506.432,219.359,501,219.359z M452.447,248.625
				c4.435,0.111,8.646-3.104,8.646-6.762c0-3.991-4.434-8.314-8.757-8.425c-4.435-0.111-8.536,3.215-8.646,6.762
				C443.69,244.301,448.123,248.514,452.447,248.625z M560.529,227.563c-4.656-0.111-8.868,3.991-8.868,8.425
				c0,3.547,3.769,6.54,8.313,6.651c4.656,0,8.868-3.991,8.868-8.425C568.842,230.556,565.073,227.563,560.529,227.563z
				 M426.175,251.618c-3.326,0-5.986,1.995-6.651,4.988c-0.222,0.998,0,2.106-1.773,1.33c-0.776-0.333-1.331,0.443-1.663,0.998
				c-0.333,0.666,0.332,0.887,0.665,1.109c3.547,2.66,7.205,5.21,10.642,7.871c1.441,1.108,1.995-0.222,2.771-0.887
				c1.22-0.998,0.111-1.552-0.665-1.995c-1.663-1.33-3.547-2.55-5.21-3.88s-2.993-2.771-1.22-4.877
				c1.552-1.885,3.437-1.441,5.21-0.222c2.218,1.552,4.435,3.104,6.541,4.767c1.44,1.108,1.995-0.111,2.771-0.776
				c1.22-0.998,0.222-1.552-0.554-2.106c-2.328-1.663-4.656-3.437-6.983-5.099C428.946,252.061,427.615,251.507,426.175,251.618z
				 M514.968,228.006c-0.111,1.33-0.111,2.55-0.333,3.769c-0.332,1.773,0.776,1.995,2.106,2.217
				c1.441,0.222,2.106-0.333,2.217-1.773c0.111-2.55,0.443-4.988,0.443-7.538c0-1.773,0.665-2.328,2.328-2.106
				c1.22,0.222,2.217,0.222,2.217-1.552c0.111-1.884-1.219-1.441-2.217-1.552c-0.776-0.111-1.995,0.443-1.885-1.219
				c0.111-1.22,0.222-2.55,1.774-2.771c0.443-0.111,0.997,0.111,1.552,0.111c0.997-0.111,1.108-1.108,1.44-1.774
				c0.333-0.776-0.332-0.998-0.887-1.33c-2.882-1.219-7.095,0.665-7.76,3.547c-0.332,1.441,0.111,2.993-2.105,3.437
				c-0.665,0.222-0.776,1.884-0.333,2.106C516.408,223.239,514.635,225.899,514.968,228.006z M434.6,237.096
				c-0.443-0.554-0.222-1.884-1.885-1.663c-3.88,0.665-5.653,4.767-3.326,7.871c0.666,0.887,2.328,1.441,0.776,3.104
				c-0.443,0.555,1.22,2.217,1.885,1.885c2.328-1.33,2.882,0.776,3.88,1.663c1.773,1.552,3.437,3.215,4.988,4.989
				c1.33,1.552,2.328,0.776,3.437-0.111c1.552-1.219,0.11-1.663-0.555-2.328c-1.885-1.996-3.88-3.88-5.875-5.875
				c-0.887-0.776-1.441-1.441,0-2.328c0.776-0.443,2.438-0.776,0.998-2.439c-0.998-1.219-1.885-0.887-2.883-0.111
				c-1.33,1.22-2.328,0.887-3.325-0.443c-1.108-1.441-0.776-2.438,0.665-3.104C434.045,238.204,434.932,238.204,434.6,237.096z
				 M545.231,237.761c1.33,0.111,2.993,0.222,2.328-2.328c-0.443-1.441-1.773-0.776-2.661-0.776
				c-1.884-0.111-3.658-0.443-4.434-2.328c-0.887-1.995-0.111-3.88,1.22-5.432c1.33-1.441,2.992-1.774,4.877-1.109
				c0.887,0.333,1.773,0.666,2.55,0.998c1.33,0.554,1.552-0.666,2.106-1.22c0.554-0.665,0.11-0.998-0.443-1.441
				c-2.55-1.995-8.093-2.217-10.975-0.333c-2.661,1.773-4.213,5.875-3.437,8.868C537.028,235.655,540.464,237.65,545.231,237.761z
				 M425.62,272.236c0.333-0.998-0.555-1.22-1.108-1.552c-5.875-3.326-11.64-6.429-17.515-9.755
				c-1.663-0.887-2.218,0.111-2.993,1.108c-0.887,1.331,0.332,1.552,0.997,1.885c5.765,3.214,11.529,6.318,17.294,9.533
				C424.401,274.896,424.844,273.345,425.62,272.236z M481.823,222.685c-0.665,0.333-1.884,0.111-1.44,1.663
				c1.108,3.769,2.105,7.538,3.104,11.307c0.333,1.108,0.776,1.33,1.995,1.219c1.885-0.333,2.217-0.887,1.663-2.771
				c-0.887-3.658-2.993-7.76,2.438-10.087c0.998-0.443,0.555-1.441,0.333-2.217c-0.333-0.887-1.108-0.665-1.773-0.554
				c-1.22,0.333-2.218,0.998-2.993,1.996c-0.665,0.887-1.22,1.441-1.996,0.111C482.931,222.907,482.488,222.574,481.823,222.685z
				 M528.936,220.024c-0.223,0-0.998-0.222-1.22,0.554c-0.222,0.665-0.222,1.885-0.111,1.996c2.883,0.998,0.887,2.993,0.887,4.545
				c-0.11,1.773-0.665,3.547-0.997,5.432c-0.222,1.108-0.555,2.217,1.44,2.328c1.441,0.111,2.328,0.111,2.55-1.663
				c0.333-2.882,1.108-5.764,1.663-8.646C533.813,220.468,533.481,220.135,528.936,220.024z M505.213,212.93
				c-3.104-0.998-4.435,0.555-5.543,2.882c-0.776,1.773,0.332,1.663,1.441,1.441C503.66,216.81,504.104,214.593,505.213,212.93z
				 M532.371,213.262c-1.33,0.111-2.217,0.554-2.327,1.885c-0.111,1.663,1.108,1.995,2.438,1.995s2.217-0.776,2.217-1.995
				S533.702,213.373,532.371,213.262z M474.506,324.891c0.998-0.111,1.553-0.554,1.885-1.33
				C475.393,323.45,474.949,323.894,474.506,324.891z"/>
			<path fill="#FCFCFD" d="M508.76,333.76c-10.642-0.444-20.175-3.658-28.378-10.31c-21.173-17.404-19.732-48.443,2.992-63.962
				c25.164-17.183,60.858-5.321,68.729,22.835c3.658,12.97,0.775,24.72-7.649,35.141c-8.757,10.752-20.508,15.63-34.364,16.295
				C509.647,333.76,509.203,333.76,508.76,333.76z M505.767,262.259c-0.332,1.996-0.554,3.437-0.665,4.767
				c-0.555,9.201-3.547,17.626-9.423,24.942c-1.219,1.441-2.217,2.993-3.104,4.545c-1.22,1.885-1.885,3.991-1.885,6.319
				c-0.222,10.199,10.088,18.734,21.284,17.736c7.648-0.665,12.415-4.102,14.078-9.977c0.887-3.326,0.665-6.651-0.11-9.866
				C522.506,286.425,513.97,274.896,505.767,262.259z"/>
			<path fill="#FCFCFD" d="M465.638,333.76c-0.443,0.776,0.222,1.33,0.665,1.884c5.876,6.984,7.095,14.632,2.883,22.614
				c-4.213,8.092-11.418,12.083-20.841,12.083c-9.977,0-18.623-6.208-21.505-15.076c-2.771-8.425,0.443-17.737,8.092-23.058
				c8.203-5.764,19.399-5.764,27.381-0.111c0.776,0.554,1.441,1.552,2.55,1.552C465.195,333.648,465.416,333.648,465.638,333.76z
				 M448.567,341.741c1.663-0.111,2.771-0.887,2.771-2.66c0.111-1.885-1.22-2.882-2.882-2.771c-1.552,0-2.771,0.887-2.771,2.55
				C445.685,340.743,446.793,341.63,448.567,341.741z M457.324,357.26c0.11-0.111,0.222-0.222,0.332-0.333
				c-5.985,0-11.972,0-17.847,0c0,0.111,0,0.222,0,0.333C445.685,357.26,451.449,357.26,457.324,357.26z M439.698,345.953
				c0,0.111,0,0.222,0,0.333c5.986,0,11.973,0,17.848,0c0-0.111,0-0.222,0-0.333C451.671,345.953,445.685,345.953,439.698,345.953z
				 M457.546,351.829c-0.111-0.111-0.111-0.222-0.111-0.333c-5.875,0-11.64,0-17.515,0c0,0.111,0,0.222,0,0.333
				C445.795,351.829,451.671,351.829,457.546,351.829z"/>
			<path fill="#FCFCFD" d="M570.394,370.23c-12.526,0.111-22.835-9.312-22.946-20.951c-0.11-11.861,9.533-21.173,22.614-21.505
				c12.415-0.333,22.946,9.533,23.058,21.284C593.119,360.586,582.81,370.23,570.394,370.23z M573.165,338.859
				c-0.332-1.774-1.552-2.771-3.325-2.55c-1.552,0.111-2.771,1.219-2.66,2.882c0.11,1.773,1.33,2.66,3.104,2.55
				C572.168,341.519,572.944,340.521,573.165,338.859z M561.304,351.385c0,0.111,0.111,0.222,0.111,0.333c5.875,0,11.64,0,17.515,0
				c0-0.111,0-0.222,0-0.333C573.055,351.385,567.18,351.385,561.304,351.385z M578.93,357.26c0.111-0.111,0.111-0.222,0.111-0.333
				c-5.876,0-11.861,0-17.737,0c0,0.111,0,0.222,0,0.333C567.18,357.26,573.055,357.26,578.93,357.26z M578.93,346.286
				c0-0.111,0.111-0.222,0.111-0.333c-5.876,0-11.861,0-17.737,0c0,0.111,0,0.222,0,0.333
				C567.18,346.286,573.055,346.286,578.93,346.286z"/>
			<path fill="#FBFCFC" d="M510.201,349.279c11.418,0.887,20.175,7.981,21.727,17.625c1.441,8.758-2.438,16.85-10.198,21.506
				c-8.092,4.877-18.623,4.434-26.161-0.998c-7.428-5.432-10.531-13.856-8.203-22.17c2.438-8.314,10.198-14.743,19.066-15.741
				c0.665-0.111,1.441-0.111,2.217-0.222C509.203,349.279,509.647,349.279,510.201,349.279z M512.307,362.692
				c-0.222-1.774-1.44-2.661-3.214-2.55c-1.663,0.111-2.771,1.219-2.661,2.771c0.111,1.773,1.441,2.66,3.215,2.549
				C511.31,365.463,512.307,364.466,512.307,362.692z M500.668,369.676c0,0.111-0.111,0.222-0.111,0.333c5.875,0,11.861,0,17.736,0
				c0-0.111,0-0.222,0-0.333C512.418,369.676,506.543,369.676,500.668,369.676z M500.557,375.219c0,0.111,0,0.222,0,0.333
				c5.986,0,11.861,0,17.848,0c0-0.111,0-0.222,0-0.333C512.418,375.219,506.432,375.219,500.557,375.219z M500.557,380.65
				c0,0.111,0.111,0.222,0.111,0.333c5.875,0,11.75,0,17.625,0c0-0.111,0-0.222,0-0.333
				C512.307,380.65,506.432,380.65,500.557,380.65z"/>
			<path fill="#F1F3F5" d="M476.724,237.539c-2.439,2.993-5.433,4.212-8.979,3.326c-3.437-0.887-5.21-3.437-6.097-6.651
				c-0.776-2.993,0.332-5.21,2.882-6.762c2.771-1.663,5.875-1.885,8.979-1.774c1.219,0.111,1.662,0.666,1.995,1.552
				c1.663,3.547,3.437,6.984,4.988,10.42c1.441,3.326,0.443,4.767-1.885,7.427c-2.327,2.661-4.877,1.996-7.648,2.217
				c-0.887,0.111-1.552-0.222-1.663-1.331c-0.11-0.998,0.222-1.441,1.33-1.663c1.441-0.222,2.883-0.443,4.213-0.998
				C477.611,242.306,478.054,240.754,476.724,237.539z M474.284,234.768c-0.11-2.882-2.327-5.875-4.102-5.765
				c-2.882,0.111-4.767,1.552-4.767,3.769c0,2.661,2.55,5.543,4.988,5.321C472.511,237.761,474.174,236.874,474.284,234.768z"/>
			<path fill="#F3F4F7" d="M501,219.359c5.543,0,7.428,1.663,8.093,6.208c0.332,2.106,0.332,4.212,0.665,6.319
				c0.332,1.884-1.331,1.995-1.996,1.441c-1.44-1.33-2.105-0.333-3.104,0.222c-1.995,0.998-4.102,1.331-6.318,0.666
				c-2.106-0.555-3.437-1.774-3.548-3.991c-0.11-2.106,1.108-3.325,2.993-4.102c1.885-0.776,3.88-0.554,5.875-0.887
				c0.443-0.111,1.22,0.111,1.331-0.554c0.222-0.665-0.333-1.219-0.776-1.552c-1.773-1.109-3.547-0.776-5.432-0.222
				c-1.22,0.333-2.439,0.776-2.883-0.998c-0.554-2.106,1.331-1.663,2.218-1.885C499.227,219.581,500.557,219.47,501,219.359z
				 M501.555,231.553c1.44-0.333,3.325-0.443,3.658-2.661c0.332-1.552-0.998-1.219-1.885-1.108
				c-1.663,0.222-4.102-0.665-4.656,1.773C498.45,231.221,499.892,231.553,501.555,231.553z"/>
			<path fill="#F3F4F7" d="M452.447,248.625c-4.434-0.111-8.757-4.212-8.757-8.314c0-3.547,4.102-6.873,8.646-6.762
				c4.323,0.111,8.757,4.434,8.757,8.425C460.983,245.41,456.881,248.625,452.447,248.625z M456.991,242.749
				c0.111-3.325-2.771-6.097-5.432-5.986c-2.106,0.111-3.88,0.887-3.99,3.437c-0.111,2.439,2.993,5.432,5.542,5.21
				C455.108,245.188,456.881,244.412,456.991,242.749z"/>
			<path fill="#F5F6F8" d="M560.529,227.563c4.655,0.111,8.313,2.993,8.313,6.651c-0.11,4.434-4.212,8.425-8.868,8.425
				c-4.545,0-8.313-2.993-8.313-6.651C551.66,231.553,555.872,227.452,560.529,227.563z M559.42,239.535
				c2.771-0.111,5.432-2.771,5.432-5.21c0.11-1.995-1.885-3.658-4.102-3.658c-2.55,0.111-5.21,2.882-5.1,5.542
				C555.762,238.647,557.535,239.202,559.42,239.535z"/>
			<path fill="#F5F6F8" d="M426.175,251.618c1.44-0.111,2.771,0.443,3.99,1.33c2.438,1.663,4.656,3.437,6.983,5.099
				c0.776,0.554,1.774,0.998,0.555,2.106c-0.776,0.665-1.33,1.884-2.771,0.776c-2.106-1.663-4.212-3.215-6.54-4.767
				c-1.773-1.331-3.658-1.663-5.21,0.222c-1.663,1.995-0.333,3.547,1.219,4.877c1.663,1.33,3.548,2.55,5.21,3.88
				c0.666,0.554,1.885,0.998,0.666,1.995c-0.776,0.665-1.331,1.885-2.771,0.887c-3.548-2.661-7.095-5.21-10.643-7.871
				c-0.332-0.333-0.997-0.554-0.665-1.108c0.333-0.555,0.887-1.441,1.663-0.998c1.663,0.776,1.552-0.222,1.773-1.33
				C420.189,253.613,422.96,251.618,426.175,251.618z"/>
			<path fill="#F2F4F6" d="M514.968,228.006c-0.333-2.106,1.44-4.767-1.663-6.43c-0.443-0.222-0.332-1.995,0.333-2.106
				c2.217-0.443,1.773-1.996,2.105-3.437c0.665-2.882,4.878-4.767,7.76-3.547c0.555,0.222,1.22,0.554,0.887,1.33
				c-0.332,0.666-0.443,1.663-1.44,1.774c-0.555,0.111-0.998-0.222-1.552-0.111c-1.553,0.333-1.663,1.552-1.774,2.771
				c-0.11,1.552,1.108,1.108,1.885,1.219c0.998,0.111,2.328-0.333,2.217,1.552c-0.11,1.774-0.997,1.663-2.217,1.552
				c-1.663-0.222-2.328,0.333-2.328,2.106c0,2.55-0.332,4.988-0.443,7.538c-0.11,1.441-0.775,1.884-2.217,1.773
				c-1.33-0.222-2.438-0.333-2.106-2.217C514.857,230.556,514.857,229.336,514.968,228.006z"/>
			<path fill="#F5F6F8" d="M434.6,237.096c0.332,0.998-0.555,0.998-0.998,1.33c-1.441,0.776-1.773,1.774-0.665,3.104
				c0.997,1.331,1.995,1.552,3.325,0.443c0.887-0.887,1.773-0.998,2.883,0.111c1.44,1.552-0.222,1.885-0.998,2.439
				c-1.441,0.887-0.887,1.441,0,2.328c1.995,1.885,3.99,3.88,5.875,5.875c0.555,0.665,1.995,1.219,0.555,2.328
				c-1.108,0.776-2.106,1.552-3.437,0.111c-1.552-1.774-3.215-3.437-4.988-4.989c-0.998-0.887-1.552-2.993-3.88-1.663
				c-0.555,0.333-2.328-1.33-1.885-1.885c1.441-1.663-0.222-2.217-0.776-3.104c-2.327-3.104-0.554-7.206,3.326-7.871
				C434.378,235.211,434.156,236.542,434.6,237.096z"/>
			<path fill="#F2F4F6" d="M545.231,237.761c-4.767-0.222-8.092-2.106-8.868-4.988c-0.776-2.993,0.776-7.095,3.437-8.868
				c2.882-1.885,8.313-1.663,10.975,0.333c0.554,0.443,0.997,0.776,0.443,1.441c-0.555,0.555-0.776,1.885-2.106,1.22
				c-0.776-0.333-1.663-0.665-2.55-0.998c-1.885-0.665-3.547-0.333-4.877,1.109c-1.331,1.552-1.996,3.436-1.22,5.432
				c0.776,1.774,2.55,2.106,4.434,2.328c0.888,0.111,2.328-0.554,2.661,0.776C548.113,237.872,546.45,237.872,545.231,237.761z"/>
			<path fill="#F3F4F7" d="M425.62,272.236c-0.776,0.998-1.33,2.549-3.325,1.33c-5.654-3.326-11.529-6.318-17.294-9.533
				c-0.775-0.443-1.884-0.665-0.997-1.885c0.775-0.998,1.33-1.995,2.993-1.108c5.764,3.326,11.64,6.54,17.515,9.755
				C425.066,271.127,425.953,271.238,425.62,272.236z"/>
			<path fill="#F3F4F7" d="M481.823,222.685c0.665-0.111,0.998,0.333,1.33,0.776c0.776,1.33,1.331,0.776,1.996-0.111
				c0.775-0.998,1.773-1.663,2.993-1.996c0.665-0.222,1.552-0.443,1.773,0.555c0.222,0.665,0.775,1.663-0.333,2.217
				c-5.432,2.328-3.325,6.541-2.438,10.088c0.443,1.884,0.222,2.438-1.663,2.771c-1.219,0.222-1.662-0.111-1.995-1.219
				c-0.998-3.769-1.995-7.649-3.104-11.307C479.939,222.685,481.157,222.907,481.823,222.685z"/>
			<path fill="#F3F4F7" d="M528.936,220.024c4.545,0.111,4.877,0.443,4.212,4.323c-0.555,2.882-1.33,5.765-1.663,8.646
				c-0.222,1.774-1.219,1.663-2.549,1.663c-1.885-0.111-1.553-1.22-1.441-2.328c0.332-1.773,0.887-3.547,0.997-5.432
				c0.111-1.441,1.996-3.437-0.887-4.545c-0.222-0.111-0.222-1.331,0.111-1.996C527.938,219.803,528.713,220.024,528.936,220.024z"
				/>
			<path fill="#93A0B9" d="M510.201,349.279c-0.555,0-0.998,0-1.553,0c0-5.21,0.111-10.42,0.111-15.519c0.443,0,0.887,0,1.441,0
				C510.09,338.97,510.201,344.18,510.201,349.279z"/>
			<path fill="#F1F3F5" d="M505.213,212.93c-1.109,1.774-1.553,3.991-4.102,4.434c-0.998,0.222-2.218,0.333-1.441-1.441
				C500.779,213.373,501.998,211.821,505.213,212.93z"/>
			<path fill="#F1F3F5" d="M532.371,213.262c1.331,0.111,2.328,0.554,2.328,1.885c0,1.33-0.775,1.995-2.217,1.995
				s-2.55-0.443-2.438-1.995C530.155,213.928,531.041,213.373,532.371,213.262z"/>
			<path fill="#BEC5D4" d="M474.506,324.891c0.443-0.887,0.887-1.441,1.885-1.33C476.059,324.337,475.504,324.78,474.506,324.891z"
				/>
			<path fill="#BEC5D4" d="M549.111,329.88c-0.333-0.333-0.665-0.555-0.998-0.887c0.111-0.222,0.333-0.443,0.443-0.554
				c0.333,0.333,0.665,0.665,0.998,0.998C549.332,329.547,549.221,329.658,549.111,329.88z"/>
			<path fill="#BEC5D4" d="M468.077,330.545c0.332-0.333,0.665-0.554,0.997-0.887c0.111,0.222,0.333,0.333,0.443,0.443
				c-0.332,0.333-0.665,0.665-0.997,0.998C468.409,330.988,468.188,330.767,468.077,330.545z"/>
			<path fill="#BEC5D4" d="M470.073,329.547c-0.222,0.222-0.443,0.444-0.665,0.555c-0.111-0.222-0.333-0.333-0.443-0.443
				c0.222-0.222,0.443-0.444,0.665-0.555C469.851,329.214,469.961,329.437,470.073,329.547z"/>
			<path fill="#BEC5D4" d="M549.554,329.325c0.222,0.222,0.443,0.444,0.665,0.555c-0.222,0.222-0.333,0.333-0.443,0.443
				c-0.222-0.222-0.443-0.443-0.665-0.554C549.221,329.658,549.332,329.547,549.554,329.325z"/>
			<path fill="#BEC5D4" d="M550.33,330.988c-0.223-0.222-0.444-0.443-0.666-0.554c0.223-0.222,0.333-0.333,0.444-0.443
				c0.222,0.222,0.443,0.443,0.665,0.554C550.662,330.767,550.441,330.877,550.33,330.988z"/>
			<path fill="#BEC5D4" d="M467.412,331.21c0.222-0.222,0.443-0.443,0.665-0.665c0.11,0.222,0.332,0.443,0.443,0.554
				c-0.222,0.222-0.443,0.333-0.555,0.554C467.744,331.432,467.634,331.321,467.412,331.21z"/>
			<path fill="#BEC5D4" d="M550.774,330.545c0.222,0.222,0.443,0.443,0.665,0.554c-0.222,0.222-0.333,0.333-0.443,0.554
				c-0.222-0.222-0.444-0.443-0.665-0.665C550.441,330.877,550.662,330.767,550.774,330.545z"/>
			<path fill="#BEC5D4" d="M467.856,331.653c-0.222,0.222-0.443,0.443-0.666,0.554c-0.11-0.222-0.332-0.333-0.443-0.443
				c0.223-0.222,0.443-0.443,0.666-0.554C467.634,331.321,467.744,331.432,467.856,331.653z"/>
			<path fill="#BEC5D4" d="M551.66,332.318c-0.222-0.222-0.443-0.443-0.665-0.665c0.222-0.222,0.332-0.333,0.443-0.443
				c0.222,0.222,0.443,0.333,0.665,0.554C551.882,331.875,551.771,332.097,551.66,332.318z"/>
			<path fill="#BEC5D4" d="M466.193,332.318c0.222-0.222,0.443-0.443,0.665-0.554c0.111,0.222,0.332,0.333,0.443,0.443
				c-0.222,0.222-0.443,0.443-0.665,0.554C466.525,332.762,466.303,332.54,466.193,332.318z"/>
			<path fill="#BEC5D4" d="M552.104,331.764c0.222,0.222,0.443,0.443,0.443,0.554c-0.333,0.554-0.555,0.222-0.887-0.111
				C551.771,332.097,551.882,331.875,552.104,331.764z"/>
			<path fill="#BEC5D4" d="M466.636,332.873c-0.222,0.222-0.443,0.443-0.665,0.554c-0.222-0.222-0.333-0.333-0.443-0.554
				c0.222-0.222,0.443-0.333,0.665-0.554C466.303,332.54,466.525,332.762,466.636,332.873z"/>
			<path fill="#BEC5D4" d="M465.638,333.76c-0.222-0.111-0.443-0.111-0.665-0.111c0.222-0.222,0.443-0.443,0.555-0.665
				c0.222,0.222,0.332,0.333,0.443,0.554C465.86,333.648,465.749,333.76,465.638,333.76z"/>
			<path fill="#BEC5D4" d="M541.905,322.674c0.111-0.111,0.111-0.111,0.223-0.222C542.016,322.563,542.016,322.674,541.905,322.674
				L541.905,322.674z"/>
			<path fill="#BEC5D4" d="M541.905,322.674c0,0.111-0.11,0.222-0.11,0.222S541.905,322.785,541.905,322.674L541.905,322.674z"/>
			<path fill="#BEC5D4" d="M544.898,325.889c-0.11-0.222-0.443-0.554-0.332-0.666c0.332-0.443,0.665-0.111,0.887,0.222
				C545.341,325.667,545.009,325.778,544.898,325.889z"/>
			<path fill="#BEC5D4" d="M545.563,326.554c-0.222-0.222-0.443-0.333-0.665-0.554c0.222-0.222,0.444-0.333,0.555-0.443
				c0.222,0.222,0.443,0.443,0.665,0.554C545.896,326.222,545.674,326.333,545.563,326.554z"/>
			<path fill="#BEC5D4" d="M472.179,326.665c0.332-0.222,0.554-0.665,0.887-0.222c0.11,0.111-0.222,0.443-0.443,0.665
				C472.622,326.998,472.401,326.887,472.179,326.665z"/>
			<path fill="#BEC5D4" d="M546.117,326c0.222,0.222,0.443,0.443,0.555,0.554c-0.222,0.111-0.333,0.333-0.555,0.443
				c-0.222-0.222-0.443-0.443-0.665-0.554C545.674,326.333,545.896,326.222,546.117,326z"/>
			<path fill="#BEC5D4" d="M471.514,327.33c0.222-0.222,0.443-0.443,0.665-0.554c0.222,0.222,0.332,0.333,0.554,0.443
				c-0.222,0.222-0.443,0.443-0.665,0.554C471.846,327.663,471.736,327.441,471.514,327.33z"/>
			<path fill="#BEC5D4" d="M546.672,326.665c0.222,0.222,0.443,0.443,0.665,0.554c-0.222,0.111-0.333,0.333-0.555,0.443
				c-0.222-0.222-0.443-0.443-0.665-0.554C546.339,326.998,546.561,326.776,546.672,326.665z"/>
			<path fill="#BEC5D4" d="M470.848,327.884c0.222-0.222,0.443-0.443,0.555-0.554c0.222,0.222,0.443,0.333,0.555,0.443
				c-0.222,0.222-0.443,0.333-0.666,0.554C471.181,328.106,471.07,327.995,470.848,327.884z"/>
			<path fill="#BEC5D4" d="M547.337,327.33c0.222,0.222,0.443,0.443,0.665,0.554c-0.222,0.111-0.333,0.333-0.555,0.443
				c-0.222-0.222-0.443-0.443-0.665-0.554C547.004,327.552,547.115,327.441,547.337,327.33z"/>
			<path fill="#BEC5D4" d="M471.403,328.328c-0.222,0.222-0.443,0.443-0.665,0.554c-0.222-0.111-0.333-0.333-0.555-0.443
				c0.222-0.222,0.443-0.443,0.665-0.554C471.07,327.995,471.181,328.106,471.403,328.328z"/>
			<path fill="#BEC5D4" d="M548.002,328.882c-0.222-0.222-0.443-0.443-0.555-0.554c0.222-0.111,0.333-0.333,0.555-0.443
				c0.222,0.222,0.332,0.333,0.554,0.443C548.334,328.549,548.224,328.771,548.002,328.882z"/>
			<path fill="#BEC5D4" d="M470.738,328.882c-0.222,0.222-0.443,0.443-0.665,0.555c-0.111-0.222-0.333-0.333-0.443-0.444
				c0.222-0.222,0.332-0.333,0.554-0.554C470.405,328.66,470.626,328.771,470.738,328.882z"/>
			<path fill="#BEC5D4" d="M545.009,407.92l-0.111,0.111L545.009,407.92z"/>
			<path fill="#284273" d="M505.767,262.259c8.203,12.526,16.739,24.166,20.176,38.355c0.775,3.326,0.997,6.651,0.11,9.866
				c-1.663,5.875-6.54,9.312-14.078,9.977c-11.196,0.998-21.506-7.538-21.284-17.736c0.111-2.328,0.776-4.434,1.885-6.318
				c0.887-1.552,1.885-3.104,3.104-4.545c5.876-7.316,8.868-15.63,9.423-24.942C505.213,265.585,505.435,264.255,505.767,262.259z"
				/>
			<path fill="#304978" d="M448.567,341.741c-1.773-0.111-2.882-0.998-2.882-2.771c0.11-1.774,1.33-2.55,2.771-2.55
				c1.773,0,2.882,0.887,2.882,2.771C451.338,340.854,450.23,341.519,448.567,341.741z"/>
			<path fill="#2A4474" d="M457.324,357.26c-5.875,0-11.751,0-17.626,0c0-0.111,0-0.222,0-0.333c5.986,0,11.973,0,17.848,0
				C457.546,357.039,457.435,357.149,457.324,357.26z"/>
			<path fill="#2A4474" d="M439.698,345.953c5.986,0,11.973,0,17.848,0c0,0.111,0,0.222,0,0.333c-5.986,0-11.973,0-17.848,0
				C439.698,346.175,439.698,346.064,439.698,345.953z"/>
			<path fill="#2A4474" d="M457.546,351.829c-5.875,0-11.751,0-17.626,0c0-0.111,0-0.222,0-0.333c5.875,0,11.64,0,17.515,0
				C457.546,351.607,457.546,351.718,457.546,351.829z"/>
			<path fill="#364E7C" d="M573.165,338.859c-0.11,1.663-0.887,2.66-2.66,2.771c-1.885,0.222-2.993-0.776-3.104-2.549
				c-0.111-1.663,0.997-2.771,2.66-2.882C571.614,336.087,572.722,337.085,573.165,338.859z"/>
			<path fill="#2A4474" d="M561.304,351.385c5.876,0,11.751,0,17.626,0c0,0.111,0,0.222,0,0.333c-5.875,0-11.64,0-17.515,0
				C561.415,351.607,561.304,351.496,561.304,351.385z"/>
			<path fill="#2A4474" d="M578.93,357.26c-5.875,0-11.75,0-17.626,0c0-0.111,0-0.222,0-0.333c5.876,0,11.861,0,17.737,0
				C579.041,357.039,578.93,357.26,578.93,357.26z"/>
			<path fill="#2A4474" d="M578.93,346.286c-5.875,0-11.75,0-17.626,0c0-0.111,0-0.222,0-0.333c5.876,0,11.861,0,17.737,0
				C578.93,346.175,578.93,346.175,578.93,346.286z"/>
			<path fill="#364E7C" d="M512.307,362.692c-0.11,1.773-0.997,2.66-2.66,2.882c-1.773,0.111-3.104-0.776-3.215-2.549
				c-0.11-1.663,0.998-2.661,2.661-2.771C510.977,360.032,512.085,360.918,512.307,362.692z"/>
			<path fill="#2A4474" d="M500.668,369.676c5.875,0,11.75,0,17.625,0c0,0.111,0,0.222,0,0.333c-5.875,0-11.861,0-17.736,0
				C500.557,369.897,500.668,369.787,500.668,369.676z"/>
			<path fill="#5F7396" d="M500.557,375.219c5.986,0,11.861,0,17.848,0c0,0.111,0,0.222,0,0.333c-5.986,0-11.861,0-17.848,0
				C500.557,375.44,500.557,375.33,500.557,375.219z"/>
			<path fill="#5F7396" d="M500.557,380.65c5.875,0,11.75,0,17.626,0c0,0.111,0,0.222,0,0.333c-5.876,0-11.751,0-17.626,0
				C500.668,380.872,500.557,380.761,500.557,380.65z"/>
			<path fill="#2A4474" d="M474.284,234.768c-0.11,2.217-1.773,2.993-3.88,3.325c-2.438,0.222-4.988-2.66-4.988-5.321
				c0-2.217,1.773-3.658,4.767-3.769C472.068,228.893,474.284,231.886,474.284,234.768z"/>
			<path fill="#364E7C" d="M501.555,231.553c-1.663-0.111-3.104-0.333-2.771-1.885c0.554-2.438,2.882-1.552,4.655-1.773
				c0.776-0.111,2.106-0.554,1.885,1.108C504.88,231.11,502.995,231.221,501.555,231.553z"/>
			<path fill="#304978" d="M456.991,242.749c-0.11,1.774-1.884,2.55-3.99,2.661c-2.55,0.222-5.543-2.882-5.543-5.21
				c0.111-2.439,1.885-3.326,3.991-3.437C454.22,236.652,456.991,239.424,456.991,242.749z"/>
			<path fill="#304978" d="M559.42,239.535c-1.773-0.222-3.658-0.776-3.77-3.326c-0.222-2.661,2.439-5.542,5.1-5.542
				c2.328-0.111,4.212,1.663,4.102,3.658C564.74,236.763,562.08,239.424,559.42,239.535z"/>
			<ellipse fill="none" stroke="#FAFCFC" stroke-miterlimit="10" cx="510.533" cy="330.323" rx="92.673" ry="86.354"/>
		</g>
	</g>
</g>
<g id="galeria" onclick="parent.showGaleria()" onmouseover="document.getElementById(&quot;galeria&quot;).style.cursor = &quot;pointer&quot;;">
	<g>
		<path fill="#F5F6F8" d="M730.466,484.52c-0.776,3.547-3.437,6.43-5.543,9.533c-0.665,0.998-2.106-0.222-2.106-0.665
			c0.111-1.885-1.33-1.552-2.438-1.663c-1.995-0.332-3.658-1.33-4.988-2.66c-1.773-1.773-2.328-3.769-0.776-5.875
			c1.441-1.995,3.658-1.995,5.765-1.22c1.441,0.555,2.771,1.663,4.213,2.328c0.554,0.333,0.997,1.22,1.773,0.333
			c0.443-0.666,0.332-1.331-0.111-1.885c-0.887-1.552-2.438-2.439-3.99-2.993c-1.33-0.443-2.217-0.998-1.663-2.55
			c0.665-1.773,1.885-0.665,2.66-0.332C726.697,478.312,729.801,480.085,730.466,484.52z M724.369,487.401
			c-1.553-1.219-2.993-2.549-4.988-2.882c-0.998-0.222-1.885,0.555-1.663,1.552c0.443,2.217,2.328,2.771,4.212,2.993
			C722.928,489.286,723.815,488.732,724.369,487.401z"/>
		<path fill="#F5F6F8" d="M685.459,469.665c-0.443-0.11-1.552-0.222-2.66-0.222c-0.665-0.11-1.552-0.665-1.885,0.111
			c-0.443,0.887,0.443,1.662,1.22,2.217c1.441,0.998,3.104,1.33,4.878,1.33c1.552-0.11,1.773,0.776,1.884,1.885
			c0.222,1.885-1.33,1.219-1.995,1.219c-7.427,0-11.972-5.653-9.755-11.972c0.887-2.771,3.104-4.212,6.208-4.102
			c3.658,0.111,7.094,2.217,7.76,4.656C692,468.225,690.337,469.887,685.459,469.665z M685.903,467.005c0.443,0,1.22,0,1.553-0.776
			c0.332-0.665,0.222-1.44-0.443-1.884c-1.441-0.998-2.993-1.663-4.768-0.555c-0.775,0.555-1.44,1.33-1.33,2.217
			c0.222,0.998,1.33,0.555,1.996,0.665C683.797,466.894,684.684,466.894,685.903,467.005z"/>
		<path fill="#F0F1F5" d="M703.972,470.108c-2.55-0.332-3.99,0.776-4.988,2.55c-0.665,1.441-1.108,2.993-1.773,4.435
			c-0.443,0.997-0.111,2.771-2.328,1.995c-1.663-0.555-2.106-1.33-1.441-2.993c1.22-3.104,1.996-6.43,2.993-9.645
			c0.222-0.665,0.111-1.884,1.22-1.773c0.887,0,1.773,0.443,1.773,1.552c0,1.773,0.998,1.22,1.995,0.887
			c0.776-0.222,1.663-0.443,2.439-0.222c0.887,0.222,2.549-0.222,2.105,1.774C705.635,470.108,705.08,470.663,703.972,470.108z"/>
		<path fill="#F2F4F6" d="M710.29,469.998c3.658,0.222,5.1,2.55,3.88,5.542c-1.33,2.771-2.549,5.654-3.769,8.425
			c-0.443,1.109-0.887,1.663-2.217,0.888c-0.998-0.555-2.328-0.888-1.441-2.55c0.998-1.885,1.885-3.88,2.66-5.986
			c0.443-1.33,2.106-2.55-0.11-3.99C708.739,471.882,709.625,470.33,710.29,469.998z"/>
		<path fill="#F0F1F5" d="M719.602,466.783c-0.775,0.554-1.219,0.887-1.662,1.33c-1.33,0.887-2.55,1.995-4.213,0.665
			c-0.887-0.775-0.222-1.22,0.222-1.663c1.22-1.44,2.439-2.771,4.435-1.108C718.493,466.118,718.937,466.34,719.602,466.783z"/>
		<path fill="#374F7C" d="M724.369,487.401c-0.443,1.331-1.441,1.885-2.439,1.774c-1.884-0.223-3.88-0.888-4.212-2.993
			c-0.222-0.998,0.665-1.774,1.663-1.552C721.376,484.963,722.817,486.293,724.369,487.401z"/>
		<path fill="#374F7C" d="M685.903,467.005c-1.219-0.111-2.217-0.222-2.992-0.333c-0.666-0.11-1.885,0.333-1.996-0.665
			c-0.222-0.887,0.555-1.662,1.33-2.217c1.774-0.998,3.326-0.443,4.768,0.555c0.665,0.443,0.775,1.219,0.443,1.884
			C687.122,467.005,686.236,467.005,685.903,467.005z"/>
		<g>
			<path fill="#284272" d="M530.044,568.214c-0.555-68.729,57.976-126.04,130.252-124.932
				c68.175,0.998,126.372,55.205,126.262,125.485c-0.111,68.951-57.755,124.488-129.477,124.377
				C587.244,693.034,530.044,636.831,530.044,568.214z M653.313,597.812c4.102,0,8.313,0,12.525,0c9.756,0,19.399,0.11,29.044,0
				c6.983-0.111,10.642-3.77,10.642-10.421c0-21.283,0-42.678,0-63.962c0-4.877-2.217-7.648-6.983-9.09
				c-1.995-0.554-3.991-0.554-6.097-0.554c-26.051,0-52.212,0-78.263,0c-1.44,0-2.882,0-4.212,0.222
				c-5.1,0.665-8.868,3.99-8.868,8.313c-0.111,22.393,0,44.784,0,67.288c0,2.771,1.44,4.877,3.769,6.429
				c2.328,1.553,4.988,1.996,7.871,1.996C626.154,597.812,639.677,597.812,653.313,597.812z M628.592,609.673
				c2.55,4.212,6.097,5.653,10.198,5.764c3.88,0.111,7.76,0,11.64,0c23.39,0,46.891,0,70.392,0c8.314,0,11.861-3.437,11.861-11.528
				c0-21.063,0-42.124,0-63.075c0-4.435-1.773-7.095-5.986-8.646c-3.325-1.22-3.658-0.998-3.658,2.328
				c0,20.951-0.222,41.902,0.111,62.854c0.11,7.648-4.767,11.528-11.64,12.193c-1.552,0.222-2.993,0.111-4.545,0.111
				c-14.854,0-29.709,0-44.674,0C651.206,609.673,640.232,609.673,628.592,609.673z M666.948,606.68c7.316,0,14.632,0,22.06,0
				c6.318,0,12.637,0.11,18.956,0c7.87-0.111,11.307-3.658,11.307-11.196c0-21.173,0-42.457,0-63.74
				c0-4.323-1.995-6.984-6.208-8.536c-3.215-1.219-3.437-0.997-3.437,2.328c0,21.284,0,42.679,0,63.962
				c0,5.543-2.882,9.09-8.313,10.531c-2.328,0.665-4.656,0.665-6.983,0.665c-25.275,0-50.549,0-75.824,0
				c-0.887,0-2.105-0.443-2.549,0.443c-0.555,0.998,0.665,1.773,1.44,2.438c2.661,2.439,5.986,3.104,9.533,3.104
				C640.232,606.68,653.533,606.68,666.948,606.68z M635.022,450.931c-6.208,0-9.977,3.548-9.201,9.201
				c0.333,2.993,1.441,5.765,3.104,8.203c3.547,4.988,9.09,6.54,14.743,4.102c4.212-1.773,4.212-1.773,2.771-5.986
				c-0.333-0.997-0.887-1.995-0.998-3.104c-0.443-2.66-1.885-3.437-4.434-2.66c-0.666,0.222-1.441,0.443-2.106,0.443
				c-1.774,0.11-1.552,1.219-1.441,2.327c0.111,1.441,1.108,1.22,1.995,0.888c3.215-0.998,3.104,1.662,3.658,3.325
				c0.665,1.995-1.44,1.773-2.438,2.106c-4.545,1.44-8.203-0.998-10.088-6.541c-2.328-6.429,0.222-9.533,7.095-9.09
				c0.887,0.111,1.885,0.665,1.995-0.887c0.111-1.219,0.111-2.217-1.552-2.328C637.127,451.152,636.24,451.042,635.022,450.931z
				 M659.52,462.57c-1.995,0-3.658-0.11-5.21,0.111c-1.995,0.222-3.88,0.775-4.323,3.104c-0.443,2.217,0.333,4.102,2.328,5.432
				c2.217,1.331,4.655,1.441,6.983,0.555c0.998-0.443,1.773-1.441,2.993,0.11c0.665,0.888,2.217,0.666,1.885-1.219
				c-0.222-1.995-0.443-3.88-0.776-5.875c-0.997-6.541-4.102-8.979-10.863-8.093c-0.887,0.111-2.55-0.222-2.438,1.441
				c0.222,1.44,0.887,2.328,2.882,1.773C655.418,459.134,657.968,459.245,659.52,462.57z M730.466,484.52
				c-0.665-4.435-3.77-6.208-7.095-7.76c-0.776-0.332-1.995-1.441-2.66,0.333c-0.555,1.552,0.332,1.995,1.662,2.549
				c1.663,0.555,3.104,1.441,3.991,2.993c0.332,0.665,0.554,1.33,0.11,1.885c-0.775,0.887-1.219-0.111-1.773-0.333
				c-1.441-0.775-2.771-1.773-4.212-2.327c-2.106-0.776-4.213-0.887-5.765,1.219c-1.552,2.106-0.887,4.102,0.775,5.876
				c1.331,1.33,2.993,2.438,4.989,2.66c1.108,0.222,2.438-0.222,2.438,1.663c0,0.443,1.441,1.662,2.106,0.665
				C726.918,490.949,729.579,488.066,730.466,484.52z M685.459,469.665c4.878,0.222,6.541-1.44,5.654-4.877
				c-0.666-2.55-4.102-4.656-7.76-4.656c-3.215-0.11-5.321,1.33-6.208,4.102c-2.217,6.318,2.328,11.972,9.755,11.972
				c0.776,0,2.217,0.776,1.995-1.219c-0.11-1.22-0.332-1.995-1.884-1.885c-1.663,0.111-3.437-0.332-4.878-1.33
				c-0.665-0.555-1.552-1.22-1.22-2.217c0.333-0.776,1.33-0.111,1.885-0.111C683.907,469.443,685.016,469.665,685.459,469.665z
				 M667.834,460.243c0.11,0,0.11,0,0.11,0c0,2.992-0.11,5.985,0,8.979c0.111,2.328,1.441,3.658,3.658,4.213
				c0.776,0.222,1.663,0.665,2.217-0.222c0.444-0.776-0.222-1.774-0.665-2.106c-1.884-1.108-1.552-2.771-1.552-4.435
				c-0.11-4.545-0.222-9.09-0.11-13.635c0.11-1.885-0.665-2.438-2.439-2.438c-2.105-0.111-1.219,1.441-1.219,2.328
				C667.834,455.254,667.834,457.804,667.834,460.243z M703.972,470.108c1.22,0.555,1.773-0.11,1.995-1.44
				c0.333-1.885-1.219-1.553-2.105-1.774c-0.666-0.222-1.553,0.111-2.439,0.222c-0.997,0.222-1.995,0.776-1.995-0.887
				c0-1.219-0.998-1.552-1.773-1.552c-0.998,0-0.887,1.108-1.22,1.773c-0.997,3.215-1.773,6.541-2.993,9.645
				c-0.665,1.773-0.222,2.438,1.441,2.993c2.217,0.776,1.885-0.998,2.328-1.995c0.554-1.441,0.997-2.993,1.773-4.435
				C699.87,470.885,701.422,469.776,703.972,470.108z M710.29,469.998c-0.665,0.332-1.552,1.773-0.887,2.217
				c2.218,1.552,0.555,2.771,0.111,3.99c-0.776,1.996-1.663,3.991-2.661,5.986c-0.887,1.663,0.333,1.995,1.441,2.55
				c1.33,0.776,1.773,0.222,2.217-0.887c1.22-2.771,2.55-5.653,3.77-8.425C715.5,472.548,713.948,470.22,710.29,469.998z
				 M719.602,466.783c-0.664-0.443-1.108-0.555-1.44-0.776c-1.995-1.662-3.326-0.332-4.435,1.108
				c-0.443,0.443-1.108,0.887-0.222,1.663c1.774,1.441,2.883,0.333,4.213-0.665C718.383,467.67,718.826,467.337,719.602,466.783z"/>
			<path fill="#FBFBFC" d="M653.313,597.812c-13.524,0-27.159,0-40.684,0c-2.771,0-5.543-0.443-7.87-1.996
				c-2.328-1.552-3.77-3.657-3.77-6.429c0-22.393,0-44.785,0-67.288c0-4.323,3.77-7.76,8.868-8.313
				c1.441-0.223,2.883-0.223,4.213-0.223c26.05,0,52.212,0,78.262,0c1.995,0,3.991-0.11,6.097,0.555
				c4.878,1.441,6.984,4.213,6.984,9.09c0,21.284,0,42.679,0,63.962c0,6.763-3.658,10.421-10.642,10.421
				c-9.756,0.11-19.399,0-29.044,0C661.626,597.812,657.414,597.812,653.313,597.812z M653.313,517.887c-13.303,0-26.716,0-40.019,0
				c-4.434,0-6.097,1.662-6.097,5.985c0,15.741,0,31.594,0,47.334c0,4.656,1.663,6.319,6.651,6.319c26.272,0,52.655,0,78.927,0
				c4.988,0,6.873-1.885,6.873-6.651c0-15.408,0-30.706,0-46.226c0-5.321-1.552-6.873-7.095-6.873
				C679.474,517.887,666.393,517.887,653.313,517.887z"/>
			<path fill="#F6F7F9" d="M628.592,609.673c11.64,0,22.614,0,33.699,0c14.854,0,29.709,0,44.674,0c1.552,0,2.993,0,4.545-0.111
				c6.873-0.665,11.75-4.545,11.64-12.193c-0.222-20.951-0.111-41.902-0.111-62.854c0-3.326,0.333-3.548,3.658-2.328
				c4.102,1.552,5.986,4.212,5.986,8.646c0,21.062,0,42.124,0,63.075c0,8.092-3.547,11.528-11.861,11.528
				c-23.39,0-46.891,0-70.392,0c-3.88,0-7.76,0.111-11.64,0C634.689,615.437,631.142,613.996,628.592,609.673z"/>
			<path fill="#F8F9FA" d="M666.948,606.68c-13.303,0-26.716,0-40.019,0c-3.547,0-6.872-0.665-9.533-3.104
				c-0.665-0.665-1.884-1.33-1.44-2.438c0.443-0.887,1.662-0.443,2.549-0.443c25.274,0,50.549,0,75.824,0
				c2.327,0,4.655-0.11,6.983-0.665c5.432-1.441,8.313-5.1,8.313-10.531c0-21.283,0-42.678,0-63.962
				c0-3.325,0.222-3.437,3.437-2.328c4.213,1.552,6.208,4.213,6.208,8.536c0,21.173,0,42.456,0,63.74
				c0,7.538-3.437,11.085-11.307,11.196c-6.319,0.11-12.638,0-18.956,0C681.579,606.68,674.264,606.68,666.948,606.68z"/>
			<path fill="#F2F4F6" d="M635.022,450.931c1.219,0.111,2.106,0.222,2.993,0.222c1.662,0.111,1.662,1.109,1.552,2.328
				c-0.111,1.552-1.22,0.887-1.995,0.887c-6.984-0.443-9.312,2.661-7.095,9.09c1.885,5.543,5.542,7.871,10.088,6.541
				c0.997-0.333,3.104-0.111,2.438-2.106c-0.555-1.663-0.443-4.323-3.658-3.325c-0.887,0.332-1.885,0.443-1.995-0.887
				c-0.111-1.109-0.222-2.328,1.44-2.328c0.665,0,1.441-0.222,2.106-0.443c2.55-0.776,3.991,0.11,4.435,2.66
				c0.222,0.998,0.665,1.995,0.997,3.104c1.553,4.213,1.553,4.213-2.771,5.986c-5.653,2.438-11.195,0.776-14.743-4.102
				c-1.773-2.55-2.771-5.21-3.104-8.203C625.045,454.479,628.814,450.931,635.022,450.931z"/>
			<path fill="#F5F6F8" d="M659.52,462.57c-1.552-3.437-3.99-3.437-6.43-2.882c-1.995,0.555-2.771-0.333-2.882-1.773
				c-0.222-1.552,1.441-1.33,2.438-1.441c6.763-0.776,9.866,1.552,10.864,8.093c0.332,1.995,0.554,3.88,0.775,5.875
				c0.222,1.885-1.219,1.995-1.884,1.219c-1.22-1.552-1.885-0.554-2.993-0.11c-2.439,0.887-4.767,0.776-6.984-0.555
				c-1.995-1.219-2.771-3.104-2.327-5.432s2.327-2.882,4.323-3.104C655.862,462.46,657.414,462.57,659.52,462.57z M657.081,465.342
				c-1.33,0.222-3.325-0.554-3.437,1.441c-0.222,1.773,1.33,2.328,2.771,2.328c1.773,0,3.437-0.555,3.437-2.55
				S657.858,466.007,657.081,465.342z"/>
			<path fill="#FAFBFB" d="M667.834,460.243c0-2.439-0.111-4.989,0-7.428c0-0.887-0.887-2.328,1.219-2.328
				c1.774,0.111,2.55,0.555,2.439,2.439c-0.111,4.545,0,9.09,0.11,13.635c0,1.663-0.443,3.325,1.552,4.434
				c0.555,0.333,1.109,1.331,0.665,2.106c-0.554,0.887-1.44,0.333-2.217,0.222c-2.217-0.554-3.547-1.885-3.658-4.212
				C667.834,466.229,667.945,463.235,667.834,460.243C667.945,460.243,667.834,460.243,667.834,460.243z"/>
			<path fill="#284272" d="M653.313,517.887c13.08,0,26.05,0,39.131,0c5.542,0,7.095,1.552,7.095,6.872c0,15.409,0,30.707,0,46.226
				c0,4.768-1.885,6.651-6.873,6.651c-26.272,0-52.655,0-78.928,0c-4.988,0-6.651-1.662-6.651-6.318c0-15.741,0-31.593,0-47.334
				c0-4.213,1.663-5.986,6.098-5.986C626.597,517.775,640.01,517.887,653.313,517.887z"/>
			<path fill="#324A79" d="M657.081,465.342c0.776,0.665,2.66-0.775,2.771,1.22c0,1.995-1.663,2.55-3.437,2.55
				c-1.552,0-2.993-0.555-2.771-2.328C653.866,464.788,655.751,465.563,657.081,465.342z"/>
			<ellipse fill="none" stroke="#FCFCFC" stroke-miterlimit="10" cx="657.746" cy="567.881" rx="93.228" ry="90.678"/>
			<path fill="none" stroke="#FDFFFF" stroke-miterlimit="10" d="M615.622,577.525l30.484-30.928
				c3.991-3.991,10.088-3.658,13.856,0.554l25.386,30.374"/>
			<path fill="none" stroke="#FCFCFC" stroke-miterlimit="10" d="M606.976,553.913l6.873-4.655c2.55-1.441,5.542-0.998,7.648,0.887
				l9.866,11.528"/>
		</g>
	</g>
</g>
<g id="video" onclick="parent.showMainVideo();" onmouseover="document.getElementById(&quot;video&quot;).style.cursor = &quot;pointer&quot;">
	<g>
		<path fill="#F2F4F6" d="M278.962,513.896c-3.769-2.66-7.095-5.986-10.642-8.868c-1.441-1.108-0.998-1.885-0.222-3.104
			c1.219-1.663,1.773-0.222,2.549,0.332c4.546,3.77,8.646,7.871,13.524,11.308c0.555,0.332,1.441,0.665,0.776,1.552
			c-0.665,0.997-0.887,2.771-2.439,2.66c-7.76-0.887-15.63-0.222-23.611-0.887c0.555-2.217,1.663-2.882,3.77-2.882
			C268.099,514.007,273.419,513.896,278.962,513.896z"/>
		<path fill="#FAFBFC" d="M286.389,551.918c0,0.555,0.111,1.22,0,1.773c-0.332,1.441,1.22,3.88-2.327,3.658
			c-3.77-0.222-4.878-0.887-4.878-4.102c0-1.33,0.111-2.549,0-3.769c-0.111-1.885,0.776-2.883,2.55-3.326
			c3.88-0.887,4.655-0.443,4.655,3.437C286.389,550.477,286.389,551.253,286.389,551.918z"/>
		<g>
			<path fill="#284272" d="M366.757,691.038c-71.722-0.332-126.926-56.756-128.256-124.044
				c-1.441-70.835,55.537-128.035,125.817-129.365c71.168-1.33,130.807,54.872,130.807,126.815
				C495.014,634.726,437.703,690.706,366.757,691.038z M445.02,569.987c0-4.545,0.11-8.979,0-13.413
				c-0.111-2.771-1.33-3.658-3.991-2.993c-7.205,1.773-14.41,3.769-21.727,5.432c-2.771,0.665-3.991,1.995-3.88,4.878
				c0.11,4.102,0.222,8.313,0,12.526c-0.111,2.882,1.219,4.212,3.88,4.877c7.095,1.663,14.078,3.548,21.173,5.21
				c3.547,0.887,4.655,0,4.655-3.658C445.02,578.522,445.02,574.311,445.02,569.987z M353.899,598.809c-3.326,0-6.763-0.11-10.088,0
				c-3.658,0.111-5.875,1.885-5.875,4.767c-0.111,2.883,2.106,5.1,5.543,5.21c6.872,0.111,13.745,0.111,20.729,0
				c3.547-0.11,5.653-2.217,5.653-5.099c-0.111-2.882-2.218-4.767-5.875-4.767C360.55,598.809,357.224,598.809,353.899,598.809z
				 M292.597,486.071c-1.773,0.887-3.215,1.773-4.212,2.993c-1.22,1.441-1.774,2.993-0.998,4.878
				c1.108,2.771,4.988,5.099,8.314,5.099c3.436,0,5.875-1.773,7.094-4.988c0.222-0.665,0.111-1.663,1.441-0.997
				c0.887,0.443,1.552-0.333,1.885-0.998c0.332-0.776-0.665-0.998-1.22-1.441c-4.323-3.104-8.868-6.097-13.08-9.422
				c-2.106-1.663-3.437-1.22-4.768,0.887C288.717,483.189,290.49,484.52,292.597,486.071z M278.962,513.896
				c-5.543,0-10.975,0.111-16.406-0.11c-2.217-0.111-3.325,0.665-3.769,2.882c7.87,0.665,15.74,0,23.611,0.887
				c1.552,0.222,1.663-1.663,2.438-2.66c0.665-0.887-0.222-1.22-0.775-1.552c-4.878-3.326-9.091-7.428-13.524-11.308
				c-0.665-0.554-1.33-1.995-2.55-0.332c-0.775,1.219-1.219,1.995,0.222,3.104C271.867,507.909,275.194,511.124,278.962,513.896z
				 M324.966,479.753c4.102-0.111,7.981-2.66,8.425-5.875c0.443-2.771-1.773-6.208-4.767-7.206
				c-2.218-0.775-4.435-0.443-6.651,0.443c-3.437,1.441-5.21,4.102-4.545,6.873C318.315,477.536,321.197,479.753,324.966,479.753z
				 M308.67,484.52c1.774-1.552,3.326-2.771,4.656-4.102c0.887-0.887,1.773-1.885,1.22-3.325c-0.555-1.441-1.774-2.439-3.326-2.55
				c-3.325-0.333-5.875,1.108-7.981,3.547c-1.44,1.552-1.662,3.548-0.554,5.432c1.552,2.771,3.99,4.545,7.315,4.545
				c3.88-0.11,6.541-2.217,8.979-4.988c-1.33-1.33-2.328-1.773-3.88-0.222S311.553,485.739,308.67,484.52z M286.389,551.918
				c0-0.775,0-1.552,0-2.328c0-3.769-0.775-4.323-4.655-3.437c-1.773,0.443-2.661,1.441-2.55,3.326c0.111,1.22,0,2.55,0,3.769
				c0.111,3.215,1.108,3.88,4.878,4.102c3.436,0.222,1.995-2.217,2.327-3.658C286.5,553.138,286.389,552.583,286.389,551.918z
				 M291.377,505.582c1.22-0.223,1.774-1.109,2.218-1.885c0.443-0.887-0.665-0.998-1.108-1.33c-2.771-1.553-5.876-2.883-8.425-4.656
				c-2.328-1.552-3.658-0.776-4.989,1.22c-0.332,0.554-1.33,0.887-0.665,1.662c0.443,0.443,1.441,1.109,1.663,0.888
				c2.771-1.885,4.435,0.775,6.54,1.552C288.274,503.697,289.825,504.806,291.377,505.582z M277.521,495.494
				c-0.11-1.22-0.997-1.663-1.995-1.663c-1.441-0.11-2.438,0.776-2.55,1.995c-0.11,1.109,0.887,1.663,1.995,1.663
				C276.302,497.489,277.189,496.824,277.521,495.494z"/>
			<path fill="#FDFDFD" d="M321.418,550.033c5.876,0,10.643-1.44,14.522-4.988c5.432-4.877,5.542-12.193,0.443-17.293
				c-7.206-7.095-21.728-7.095-28.822,0.222c-4.988,5.1-4.767,12.638,0.665,17.293C312.218,548.593,316.873,550.033,321.418,550.033
				z M382.166,526.755c-4.102-0.111-8.093,1.108-11.418,3.88c-4.988,4.102-5.21,10.53-0.665,15.187
				c6.208,6.208,18.623,6.208,24.72,0c3.991-4.102,4.213-9.977,0.222-14.189C391.699,528.085,387.376,526.755,382.166,526.755z"/>
			<path fill="#FDFDFD" d="M445.02,569.987c0,4.212,0,8.535,0,12.858c0,3.658-1.108,4.545-4.656,3.658
				c-7.095-1.773-14.078-3.547-21.173-5.21c-2.771-0.665-3.99-1.995-3.88-4.877c0.222-4.102,0.111-8.314,0-12.526
				c-0.11-2.883,1.22-4.213,3.88-4.878c7.206-1.663,14.521-3.658,21.728-5.432c2.66-0.665,3.88,0.332,3.99,2.993
				C445.13,561.119,445.02,565.553,445.02,569.987z"/>
			<path fill="#FDFDFD" d="M353.899,598.809c3.325,0,6.762-0.11,10.088,0c3.657,0.111,5.764,1.885,5.875,4.767
				c0.11,2.883-2.106,5.1-5.653,5.1c-6.873,0.11-13.746,0.11-20.729,0c-3.437-0.111-5.654-2.328-5.543-5.21
				c0.11-2.883,2.328-4.767,5.875-4.767C347.137,598.809,350.573,598.809,353.899,598.809z"/>
			<path fill="#F2F4F6" d="M292.597,486.071c-2.106-1.552-3.88-2.771-5.543-3.99c1.441-2.218,2.661-2.55,4.768-0.887
				c4.212,3.325,8.757,6.318,13.08,9.422c0.443,0.333,1.441,0.555,1.22,1.441c-0.333,0.665-0.887,1.441-1.885,0.998
				c-1.33-0.555-1.108,0.443-1.441,0.997c-1.219,3.215-3.769,4.988-7.095,4.988c-3.325,0-7.205-2.328-8.313-5.099
				c-0.776-1.885-0.111-3.437,0.998-4.878C289.382,487.845,290.823,486.958,292.597,486.071z M296.033,495.938
				c1.995,0,3.991-1.552,3.991-3.104c0-1.441-3.437-4.768-4.989-4.878c-1.552-0.111-4.323,2.438-4.434,3.88
				C290.602,493.721,293.484,495.938,296.033,495.938z"/>
			<path fill="#F2F4F6" d="M324.966,479.753c-3.658,0-6.651-2.217-7.428-5.875c-0.665-2.771,1.109-5.432,4.545-6.873
				c2.218-0.887,4.323-1.22,6.651-0.443c2.993,1.108,5.21,4.434,4.767,7.205C332.948,476.981,329.068,479.753,324.966,479.753z
				 M325.409,469c-2.328-0.11-4.213,1.552-4.213,3.548c0,2.217,2.218,4.323,4.323,4.434c2.328,0.111,4.213-1.441,4.213-3.437
				C329.621,471.217,327.626,469.111,325.409,469z"/>
			<path fill="#F2F4F6" d="M308.67,484.52c2.993,1.22,4.878-0.111,6.43-1.773c1.552-1.663,2.55-1.108,3.88,0.222
				c-2.438,2.771-5.1,4.988-8.979,4.988c-3.436,0.11-5.764-1.773-7.315-4.545c-0.998-1.885-0.776-3.77,0.554-5.432
				c2.106-2.439,4.656-3.88,7.981-3.548c1.552,0.222,2.771,0.998,3.326,2.55c0.554,1.441-0.333,2.438-1.22,3.325
				C311.885,481.748,310.333,482.968,308.67,484.52z M306.786,482.524c0.554,0.11,4.212-3.326,4.212-3.88
				c0-0.665-0.443-0.998-0.998-1.22c-1.33-0.222-2.327,0.443-3.214,1.22c-0.887,0.775-1.22,1.773-0.776,2.882
				C306.01,481.97,306.121,482.413,306.786,482.524z"/>
			<path fill="#F2F4F6" d="M291.377,505.582c-1.552-0.776-3.104-1.885-4.877-2.55c-2.106-0.776-3.658-3.548-6.54-1.552
				c-0.222,0.222-1.331-0.443-1.663-0.887c-0.665-0.776,0.332-1.109,0.665-1.663c1.33-1.995,2.66-2.661,4.988-1.22
				c2.66,1.773,5.653,2.993,8.425,4.656c0.555,0.332,1.552,0.332,1.108,1.33C293.152,504.584,292.708,505.471,291.377,505.582z"/>
			<path fill="none" stroke="#284272" stroke-miterlimit="10" d="M382.166,526.755c5.099-0.111,9.422,1.33,12.858,4.877
				c3.991,4.102,3.77,10.088-0.222,14.189c-6.097,6.208-18.513,6.208-24.72,0c-4.545-4.545-4.323-11.085,0.665-15.187
				C374.185,527.863,378.065,526.644,382.166,526.755z"/>
			<path fill="#FAFBFC" d="M350.24,543.826c-0.111,1.995-1.552,2.993-2.993,4.102c0.887-1.663,1.885-3.437,2.771-5.1
				C350.129,543.161,350.24,543.493,350.24,543.826z"/>
			<path fill="#FAFBFC" d="M294.149,543.493c0.555,0.555,0.998,1.108,0.887,1.995c-1.44-0.222-1.219-0.997-0.997-1.995H294.149z"/>
			<path fill="#FAFBFC" d="M405.446,546.375c-0.111,0.555,0.222,1.22-0.555,1.441c-0.111,0.111-0.555-0.332-0.555-0.443
				C404.226,546.598,404.78,546.375,405.446,546.375L405.446,546.375z"/>
			<path fill="#FAFBFC" d="M403.449,549.368c-0.11,0.111-0.222,0.222-0.332,0.333c-0.111-0.222-0.333-0.333-0.443-0.555
				c0.222-0.11,0.332-0.222,0.443-0.222C403.228,548.925,403.228,549.146,403.449,549.368z"/>
			<path fill="#FAFBFC" d="M358.554,544.713c-0.443-0.333-0.887-0.555-1.44-0.887C358.332,543.271,358.554,543.937,358.554,544.713
				L358.554,544.713z"/>
			<path fill="#FAFBFC" d="M296.366,546.819c-0.222,0.11-0.333,0.332-0.443,0.332c-0.333-0.11-0.666-0.11-0.666-0.555
				c0-0.11,0.333-0.222,0.443-0.11C295.923,546.486,296.145,546.708,296.366,546.819z"/>
			<path fill="#284272" d="M350.24,543.826c-0.111-0.333-0.222-0.665-0.222-0.887c0.222-0.333,0.332-0.555,0.554-0.887
				c0.111,0.11,0.333,0.222,0.443,0.443C351.016,542.939,350.794,543.493,350.24,543.826z"/>
			<path fill="#284272" d="M360.439,547.484c0.443,0.332,0.998,0.554,0.555,1.219l0.11-0.11
				C360.55,548.371,359.995,548.149,360.439,547.484L360.439,547.484z"/>
			<path fill="#FAFBFC" d="M358.665,544.602c0.11,0.222,0.332,0.443,0.443,0.665c0,0-0.111,0.111-0.222,0.222
				C358.776,545.156,358.665,544.935,358.665,544.602C358.554,544.713,358.665,544.602,358.665,544.602z"/>
			<path fill="#284272" d="M360.882,548.703c0.555-0.222,0.887-0.11,0.555,0.555l0.11-0.111
				C361.437,549.146,361.215,548.925,360.882,548.703L360.882,548.703z"/>
			<path fill="#284272" d="M360.439,547.484c-0.222,0.222-0.443,0.222-0.554-0.111c-0.111-0.11,0-0.222,0.11-0.222
				C360.107,547.263,360.217,547.373,360.439,547.484L360.439,547.484z"/>
			<path fill="#284272" d="M405.446,546.375c0.11-0.222,0.11-0.332,0.222-0.554c0.11,0.11,0.222,0.222,0.332,0.222
				C405.667,546.153,405.556,546.265,405.446,546.375L405.446,546.375z"/>
			<path fill="#284272" d="M296.033,495.938c-2.438,0-5.432-2.328-5.321-4.102c0.111-1.441,2.883-3.88,4.435-3.88
				s4.988,3.437,4.988,4.877C299.913,494.496,298.029,495.938,296.033,495.938z"/>
			<path fill="#284272" d="M325.409,469c2.217,0.111,4.212,2.217,4.212,4.435c0,1.995-1.884,3.547-4.212,3.437
				c-2.217-0.111-4.323-2.218-4.323-4.435C321.086,470.552,323.081,469,325.409,469z"/>
			<path fill="#284272" d="M306.786,482.524c-0.555-0.111-0.665-0.555-0.887-0.998c-0.333-1.108-0.111-2.106,0.775-2.882
				c0.887-0.776,1.885-1.441,3.215-1.22c0.665,0.111,0.998,0.555,0.998,1.22C310.998,479.198,307.34,482.524,306.786,482.524z"/>
			<ellipse fill="none" stroke="#FCFCFC" stroke-miterlimit="10" cx="365.87" cy="567.548" rx="92.784" ry="93.67"/>
			<path fill="#FFFFFF" d="M411.431,597.257H296.255c-3.104,0-5.653-2.55-5.653-5.653v-43.011c0-3.104,2.55-5.653,5.653-5.653
				h115.065c3.104,0,5.653,2.549,5.653,5.653v43.011C416.974,594.707,414.424,597.257,411.431,597.257z"/>
			
				<ellipse fill="#FFFFFF" stroke="#284272" stroke-width="0.5" stroke-miterlimit="10" cx="322.305" cy="536.51" rx="29.154" ry="22.393"/>
			
				<ellipse fill="#FFFFFF" stroke="#284272" stroke-width="0.5" stroke-miterlimit="10" cx="382.277" cy="538.505" rx="25.053" ry="19.066"/>
			<ellipse fill="#284272" cx="322.195" cy="536.398" rx="18.623" ry="14.078"/>
			<ellipse fill="#284272" cx="382.388" cy="538.616" rx="15.52" ry="11.861"/>
		</g>
	</g>
</g>
<g id="fondo">
	<path fill="#F0C959" d="M699.427,449.601c-9.2-2.66-18.401-4.767-27.935-5.764c-8.203-0.776-16.518-0.555-24.721-0.888
		c-4.767-0.222-9.422-0.554-13.967-2.327c0.11-0.998,0.222-1.885,0.554-2.771c5.432-13.303,12.083-25.939,19.731-37.912
		c7.316-11.307,15.076-22.392,20.508-34.918c6.098-13.967,7.981-28.489,5.543-43.454c-0.775-4.656-1.663-9.312-2.55-13.968
		c16.296,1.774,31.704,5.986,44.674,16.517c11.086,8.979,17.404,20.951,19.954,34.697c4.434,24.388,0.332,47.223-14.301,67.62
		C719.935,436.299,709.847,443.172,699.427,449.601z"/>
	<path fill="#D1B625" d="M676.702,307.487c0.775,4.656,1.773,9.312,2.55,13.968c2.438,15.076,0.554,29.487-5.543,43.454
		c-5.432,12.416-13.191,23.612-20.508,34.919c-7.76,12.083-14.411,24.609-19.731,37.911c-0.333,0.887-0.555,1.885-0.555,2.771
		c-10.198-2.882-15.52-10.198-17.404-20.175c-2.217-11.418,0.665-22.171,4.435-32.813c2.993-8.536,7.095-16.628,10.42-25.053
		c6.318-16.073,8.868-32.701,8.093-49.995c-0.111-1.552-0.111-3.104-0.111-4.656c7.095-0.333,14.078-1.552,21.173-1.33
		c5.653,0.222,11.196-0.111,16.85,0.554C676.369,307.376,676.591,307.376,676.702,307.487z"/>
	<path fill="#D1B625" d="M403.228,387.967c14.854,24.388,4.213,47.777-21.838,53.209c-6.983,1.441-14.078,1.885-21.173,2.218
		c-15.63,0.775-30.596,4.102-45.006,10.087c-0.666,0.222-1.331,0.443-1.885,0.665c-0.443-0.443-0.887-0.775-1.22-1.219
		c-5.21-9.533-8.646-19.621-10.087-30.374c0.11-0.222,0.11-0.333,0.11-0.555c3.548-2.217,6.983-4.545,10.642-6.54
		c13.524-7.427,28.379-11.307,43.232-15.187C371.857,396.17,387.598,392.512,403.228,387.967z"/>
	<path fill="#F0C959" d="M403.228,387.967c-15.63,4.545-31.482,8.203-47.223,12.305c-14.854,3.88-29.709,7.76-43.233,15.187
		c-3.658,1.995-7.094,4.323-10.642,6.54c-2.217-20.396,3.658-38.244,16.628-53.874c11.307-13.635,26.272-20.397,43.787-22.281
		c7.316-0.776,14.743-0.333,22.17-0.444C388.373,360.697,394.693,374.775,403.228,387.967z"/>
	<path fill="#D1B625" d="M488.142,609.008c3.657-9.313,3.88-19.399,5.764-29.044c1.22-6.097,3.548-11.75,8.093-16.185
		c6.873-6.54,15.741-5.765,21.505,1.885c3.437,4.655,5.432,9.977,6.541,15.52c2.771,13.523,5.875,26.937,11.86,39.463
		c-0.554,0.555-1.219,0.998-1.773,1.553c-7.981,7.538-16.96,13.413-27.491,16.738h-0.222h-0.333
		c-1.773-3.437-4.767-5.875-6.983-8.868C499.448,622.975,493.684,615.991,488.142,609.008z"/>
	<path fill="#91BA43" d="M676.259,307.266c-5.653-0.665-11.196-0.443-16.85-0.554c-7.095-0.222-14.079,0.887-21.173,1.33
		c-2.328-21.505-9.201-41.237-21.728-59.084c-1.22-1.773-2.438-3.547-3.658-5.21c11.085,0.776,20.951,4.877,29.709,11.528
		C660.074,268.467,670.494,286.425,676.259,307.266z"/>
	<path fill="#91BA43" d="M512.529,638.827c10.531-3.326,19.511-9.201,27.492-16.739c0.554-0.554,1.219-0.998,1.773-1.552
		c5.432,10.198,11.418,19.953,19.288,28.6c3.326,3.548,6.763,6.984,10.088,10.421c-17.182,6.762-32.258,2.327-46.004-8.646
		C520.4,647.362,516.408,643.15,512.529,638.827z"/>
	<path fill="#91BA43" d="M302.02,422.441c1.44,10.753,4.767,20.952,10.087,30.374c0.333,0.443,0.776,0.776,1.22,1.22
		c-12.748,5.765-24.276,13.523-34.919,22.725C277.964,455.144,284.283,436.299,302.02,422.441z"/>
	<path fill="#F0C959" d="M488.142,609.008c5.653,6.983,11.307,13.967,16.85,21.062c2.327,2.993,5.21,5.432,6.983,8.868
		c-13.191,4.656-26.051,4.767-38.688-1.773C478.941,627.963,484.151,618.763,488.142,609.008z"/>
</g>
</svg>
