<?xml version="1.0" encoding="utf-8"?>
<!-- Generator: Adobe Illustrator 16.0.3, SVG Export Plug-In . SVG Version: 6.00 Build 0)  -->
<!DOCTYPE svg PUBLIC "-//W3C//DTD SVG 1.1//EN" "http://www.w3.org/Graphics/SVG/1.1/DTD/svg11.dtd">
<svg version="1.1" xmlns="http://www.w3.org/2000/svg" xmlns:xlink="http://www.w3.org/1999/xlink" x="0px" y="0px"
	 width="107.994px" height="107.994px" viewBox="0 0 107.994 107.994" enable-background="new 0 0 107.994 107.994"
	 xml:space="preserve">
<g id="Background">
</g>
<g id="Design">
	<g>
		<circle fill="#33CCFF" cx="55.012" cy="59.085" r="40.107"/>
		<g>
			<path fill="#FFFFFF" d="M79.122,43.617c-1.569,0.71-3.172,1.142-4.866,1.425c0.805-0.135,2.052-1.59,2.525-2.179
				c0.723-0.897,1.355-1.921,1.693-3.026c0.043-0.086,0.092-0.194,0.006-0.26c-0.108-0.043-0.171-0.021-0.257,0.021
				c-1.891,1.014-3.843,1.748-5.924,2.27c-0.172,0.043-0.298-0.001-0.406-0.109c-0.173-0.194-0.334-0.378-0.518-0.529
				c-0.875-0.744-1.813-1.328-2.87-1.76c-1.391-0.566-2.908-0.807-4.404-0.709c-1.456,0.094-2.886,0.505-4.178,1.18
				c-1.295,0.678-2.451,1.618-3.371,2.754c-0.951,1.174-1.653,2.561-2.013,4.031c-0.347,1.418-0.318,2.822-0.106,4.257
				c0.031,0.237,0.011,0.27-0.205,0.237c-8.142-1.211-14.89-4.125-20.368-10.367c-0.238-0.271-0.367-0.271-0.562,0.021
				c-2.397,3.593-1.234,9.366,1.761,12.204c0.398,0.378,0.81,0.756,1.251,1.102c-0.161,0.033-2.154-0.184-3.93-1.102
				c-0.238-0.15-0.357-0.064-0.379,0.205c-0.021,0.389,0.012,0.746,0.064,1.167c0.46,3.643,2.983,7.012,6.438,8.326
				c0.41,0.173,0.863,0.324,1.306,0.399c-0.787,0.172-1.598,0.296-3.854,0.119c-0.281-0.055-0.389,0.086-0.281,0.356
				c1.696,4.623,5.357,5.999,8.1,6.782c0.367,0.064,0.734,0.064,1.103,0.15c-0.022,0.033-0.044,0.033-0.065,0.065
				c-0.909,1.386-4.063,2.419-5.531,2.932c-2.67,0.933-5.578,1.353-8.4,1.075c-0.452-0.066-0.547-0.062-0.669,0
				c-0.124,0.076-0.016,0.184,0.129,0.302c0.573,0.378,1.156,0.713,1.75,1.037c1.792,0.95,3.661,1.706,5.615,2.246
				c10.092,2.787,21.46,0.739,29.038-6.79c5.95-5.912,8.035-14.064,8.035-22.229c0-0.32,0.378-0.496,0.603-0.664
				c1.548-1.164,2.528-2.557,3.684-4.11c0.259-0.349-0.007-0.659-0.007-0.787c0-0.022,0-0.043,0-0.043
				C79.057,43.486,79.322,43.525,79.122,43.617z"/>
			<path fill-rule="evenodd" clip-rule="evenodd" fill="#FFFFFF" d="M44.827,79.51C49.012,79.51,45.027,79.51,44.827,79.51
				C45.378,79.51,44.805,79.51,44.827,79.51z"/>
			<path fill-rule="evenodd" clip-rule="evenodd" fill="#FFFFFF" d="M44.827,79.51C44.762,79.515,44.012,79.51,44.827,79.51
				C44.827,79.51,44.696,79.51,44.827,79.51z"/>
			<path fill-rule="evenodd" clip-rule="evenodd" fill="#FFFFFF" d="M46.49,79.553C46.49,79.47,47.365,79.553,46.49,79.553
				C46.49,79.51,46.598,79.553,46.49,79.553z"/>
			<path fill-rule="evenodd" clip-rule="evenodd" fill="#FFFFFF" d="M63.963,39.054c-0.054,0.043-0.129,0.043-0.204,0
				C63.834,39.054,63.909,39.054,63.963,39.054z"/>
		</g>
	</g>
</g>
</svg>
