<?xml version="1.0" encoding="utf-8"?>
<!-- Generator: Adobe Illustrator 16.0.3, SVG Export Plug-In . SVG Version: 6.00 Build 0)  -->
<!DOCTYPE svg PUBLIC "-//W3C//DTD SVG 1.1//EN" "http://www.w3.org/Graphics/SVG/1.1/DTD/svg11.dtd">
<svg version="1.1" xmlns="http://www.w3.org/2000/svg" xmlns:xlink="http://www.w3.org/1999/xlink" x="0px" y="0px"
	 width="106.494px" height="106.494px" viewBox="0 0 106.494 106.494" enable-background="new 0 0 106.494 106.494"
	 xml:space="preserve">
<g id="Background">
</g>
<g id="Design">
	<g>
		<circle fill="#FF0000" cx="53.179" cy="51.84" r="40.107"/>
		<g>
			<path fill="#FFFFFF" d="M78.057,45.913c0-6.012-4.873-10.885-10.885-10.885h-28.23c-6.012,0-10.885,4.873-10.885,10.885v13.23
				c0,6.012,4.873,10.885,10.885,10.885h28.23c6.012,0,10.885-4.873,10.885-10.885V45.913z M60.745,52.695L49.236,58.87
				c-0.489,0.265-1.18-0.09-1.18-0.646V45.549c0-0.563,0.704-0.917,1.193-0.638l11.461,6.5
				C61.212,51.696,61.252,52.42,60.745,52.695z"/>
		</g>
	</g>
</g>
</svg>
